<svg width="92" height="92" viewBox="0 0 92 92" fill="none" xmlns="http://www.w3.org/2000/svg">
<circle cx="46" cy="46" r="46" fill="#3C3C3C"/>
<mask id="mask0_189_1944" style="mask-type:alpha" maskUnits="userSpaceOnUse" x="30" y="30" width="32" height="32">
<rect x="30" y="30" width="32" height="32" fill="#D9D9D9"/>
</mask>
<g mask="url(#mask0_189_1944)">
<path d="M44.9332 55.5334L38.3998 51.7334C38.0665 51.5556 37.8056 51.3 37.6172 50.9667C37.4278 50.6334 37.3332 50.2667 37.3332 49.8667V42.3334C37.3332 41.9334 37.4278 41.5667 37.6172 41.2334C37.8056 40.9 38.0665 40.6334 38.3998 40.4334L44.9332 36.6667C45.2665 36.4667 45.6221 36.3667 45.9998 36.3667C46.3776 36.3667 46.7332 36.4667 47.0665 36.6667L53.5998 40.4334C53.9332 40.6334 54.1945 40.9 54.3838 41.2334C54.5723 41.5667 54.6665 41.9334 54.6665 42.3334V49.8667C54.6665 50.2667 54.5723 50.6334 54.3838 50.9667C54.1945 51.3 53.9332 51.5556 53.5998 51.7334L47.0665 55.5334C46.7332 55.7334 46.3776 55.8334 45.9998 55.8334C45.6221 55.8334 45.2665 55.7334 44.9332 55.5334ZM45.3332 54.2334V46.4667L38.6665 42.6667V49.8667C38.6665 50.0222 38.6998 50.1556 38.7665 50.2667C38.8332 50.3778 38.9332 50.4778 39.0665 50.5667L45.3332 54.2334ZM46.6665 54.2334L52.9332 50.5667C53.0665 50.4778 53.1665 50.3778 53.2332 50.2667C53.2998 50.1556 53.3332 50.0222 53.3332 49.8667V42.6667L46.6665 46.4667V54.2334ZM32.6665 38V35.8667C32.6665 34.9556 32.9776 34.1947 33.5998 33.584C34.2221 32.9725 34.9665 32.6667 35.8332 32.6667H37.9998V34H35.8332C35.3221 34 34.8887 34.1778 34.5332 34.5334C34.1776 34.8889 33.9998 35.3222 33.9998 35.8334V38H32.6665ZM35.8665 59.3334C34.9554 59.3334 34.1945 59.0222 33.5838 58.4C32.9723 57.7778 32.6665 57.0334 32.6665 56.1667V54H33.9998V56.1667C33.9998 56.6778 34.1776 57.1111 34.5332 57.4667C34.8887 57.8222 35.3221 58 35.8332 58H37.9998V59.3334H35.8665ZM53.9998 59.0667V57.7334H56.1665C56.6776 57.7334 57.1109 57.5556 57.4665 57.2C57.8221 56.8445 57.9998 56.4111 57.9998 55.9V53.7334H59.3332V55.9C59.3332 56.7889 59.0221 57.5391 58.3998 58.1507C57.7776 58.7614 57.0332 59.0667 56.1665 59.0667H53.9998ZM57.9998 38V35.8334C57.9998 35.3222 57.8221 34.8889 57.4665 34.5334C57.1109 34.1778 56.6776 34 56.1665 34H53.9998V32.6667H56.1332C57.0443 32.6667 57.8052 32.9778 58.4158 33.6C59.0274 34.2222 59.3332 34.9667 59.3332 35.8334V38H57.9998ZM45.9998 45.3L52.6665 41.4667L46.3998 37.8667C46.2665 37.7778 46.1332 37.7334 45.9998 37.7334C45.8665 37.7334 45.7332 37.7778 45.5998 37.8667L39.3332 41.4667L45.9998 45.3Z" fill="white" fill-opacity="0.98"/>
</g>
</svg>
