<svg width="52" height="52" viewBox="0 0 52 52" fill="none" xmlns="http://www.w3.org/2000/svg">
<mask id="mask0_191_2114" style="mask-type:alpha" maskUnits="userSpaceOnUse" x="0" y="0" width="52" height="52">
<rect width="52" height="52" fill="#D9D9D9"/>
</mask>
<g mask="url(#mask0_191_2114)">
<path d="M18.4167 37.4292L26 31.6333L33.5833 37.4292L30.7667 28.0042L38.2958 22.6958H29.0333L26 12.8375L22.9667 22.6958H13.7042L21.2333 28.0042L18.4167 37.4292ZM26 45.5C23.2917 45.5 20.7552 44.9858 18.3907 43.9573C16.0247 42.9274 13.9663 41.5364 12.2157 39.7843C10.4636 38.0337 9.07256 35.9753 8.04267 33.6093C7.01422 31.2448 6.5 28.7083 6.5 26C6.5 23.2917 7.01422 20.7545 8.04267 18.3885C9.07256 16.0239 10.4636 13.9656 12.2157 12.2135C13.9663 10.4628 16.0247 9.07256 18.3907 8.04267C20.7552 7.01422 23.2917 6.5 26 6.5C28.7083 6.5 31.2455 7.01422 33.6115 8.04267C35.9761 9.07256 38.0344 10.4628 39.7865 12.2135C41.5372 13.9656 42.9274 16.0239 43.9573 18.3885C44.9858 20.7545 45.5 23.2917 45.5 26C45.5 28.7083 44.9858 31.2448 43.9573 33.6093C42.9274 35.9753 41.5372 38.0337 39.7865 39.7843C38.0344 41.5364 35.9761 42.9274 33.6115 43.9573C31.2455 44.9858 28.7083 45.5 26 45.5ZM26 43.3333C30.8389 43.3333 34.9375 41.6542 38.2958 38.2958C41.6542 34.9375 43.3333 30.8389 43.3333 26C43.3333 21.1611 41.6542 17.0625 38.2958 13.7042C34.9375 10.3458 30.8389 8.66667 26 8.66667C21.1611 8.66667 17.0625 10.3458 13.7042 13.7042C10.3458 17.0625 8.66667 21.1611 8.66667 26C8.66667 30.8389 10.3458 34.9375 13.7042 38.2958C17.0625 41.6542 21.1611 43.3333 26 43.3333Z" fill="white" fill-opacity="0.98"/>
</g>
</svg>
