<svg width="92" height="92" viewBox="0 0 92 92" fill="none" xmlns="http://www.w3.org/2000/svg">
<circle cx="46" cy="46" r="46" fill="#3C3C3C"/>
<mask id="mask0_189_1902" style="mask-type:alpha" maskUnits="userSpaceOnUse" x="30" y="30" width="32" height="32">
<rect x="30" y="30" width="32" height="32" fill="#D9D9D9"/>
</mask>
<g mask="url(#mask0_189_1902)">
<path d="M33.0335 55.7C32.5668 55.7 32.1668 55.5334 31.8335 55.2C31.5002 54.8667 31.3335 54.4667 31.3335 54H36.1668C35.5446 54 35.0282 53.7947 34.6175 53.384C34.2059 52.9725 34.0002 52.4556 34.0002 51.8334V37.5C34.0002 36.8778 34.2059 36.3614 34.6175 35.9507C35.0282 35.5392 35.5446 35.3334 36.1668 35.3334H55.8335C56.4557 35.3334 56.9726 35.5392 57.3842 35.9507C57.7948 36.3614 58.0002 36.8778 58.0002 37.5V51.8334C58.0002 52.4556 57.7948 52.9725 57.3842 53.384C56.9726 53.7947 56.4557 54 55.8335 54H60.6668C60.6668 54.4667 60.5002 54.8667 60.1668 55.2C59.8335 55.5334 59.4335 55.7 58.9668 55.7H33.0335ZM46.0002 55.0334C46.2224 55.0334 46.4171 54.9498 46.5842 54.7827C46.7504 54.6165 46.8335 54.4223 46.8335 54.2C46.8335 53.9778 46.7504 53.7889 46.5842 53.6334C46.4171 53.4778 46.2224 53.4 46.0002 53.4C45.7779 53.4 45.5833 53.4778 45.4162 53.6334C45.2499 53.7889 45.1668 53.9778 45.1668 54.2C45.1668 54.4223 45.2499 54.6165 45.4162 54.7827C45.5833 54.9498 45.7779 55.0334 46.0002 55.0334ZM36.1668 52.6667H55.8335C56.0557 52.6667 56.2499 52.5832 56.4162 52.416C56.5833 52.2498 56.6668 52.0556 56.6668 51.8334V37.5C56.6668 37.2778 56.5833 37.0836 56.4162 36.9174C56.2499 36.7503 56.0557 36.6667 55.8335 36.6667H36.1668C35.9446 36.6667 35.7504 36.7503 35.5842 36.9174C35.4171 37.0836 35.3335 37.2778 35.3335 37.5V51.8334C35.3335 52.0556 35.4171 52.2498 35.5842 52.416C35.7504 52.5832 35.9446 52.6667 36.1668 52.6667Z" fill="white" fill-opacity="0.98"/>
</g>
</svg>
