<svg width="32" height="32" viewBox="0 0 32 32" fill="none" xmlns="http://www.w3.org/2000/svg">
<mask id="mask0_189_1911" style="mask-type:alpha" maskUnits="userSpaceOnUse" x="0" y="0" width="32" height="32">
<rect width="32" height="32" fill="#D9D9D9"/>
</mask>
<g mask="url(#mask0_189_1911)">
<path d="M14.5998 19.8L21.1998 13.2L20.2665 12.2333L14.5998 17.9L11.7332 15.0666L10.7998 16L14.5998 19.8ZM15.9998 27.9333C13.3109 27.1555 11.0829 25.5386 9.31584 23.0826C7.54962 20.6275 6.6665 17.8666 6.6665 14.8V7.59998L15.9998 4.09998L25.3332 7.59998V14.8C25.3332 17.8666 24.4496 20.6275 22.6825 23.0826C20.9163 25.5386 18.6887 27.1555 15.9998 27.9333ZM15.9998 26.5333C18.3109 25.8 20.2221 24.3333 21.7332 22.1333C23.2443 19.9333 23.9998 17.4889 23.9998 14.8V8.49998L15.9998 5.53331L7.99984 8.49998V14.8C7.99984 17.4889 8.75539 19.9333 10.2665 22.1333C11.7776 24.3333 13.6887 25.8 15.9998 26.5333Z" fill="white" fill-opacity="0.98"/>
</g>
</svg>
