<svg width="92" height="92" viewBox="0 0 92 92" fill="none" xmlns="http://www.w3.org/2000/svg">
<circle cx="46" cy="46" r="46" fill="#3C3C3C"/>
<mask id="mask0_189_1951" style="mask-type:alpha" maskUnits="userSpaceOnUse" x="30" y="30" width="32" height="32">
<rect x="30" y="30" width="32" height="32" fill="#D9D9D9"/>
</mask>
<g mask="url(#mask0_189_1951)">
<path d="M37.9998 60C37.0665 60 36.2776 59.6778 35.6332 59.0334C34.9887 58.3889 34.6665 57.6 34.6665 56.6667C34.6665 55.7334 34.9887 54.9445 35.6332 54.3C36.2776 53.6556 37.0665 53.3334 37.9998 53.3334C38.2665 53.3334 38.5389 53.372 38.8172 53.4494C39.0945 53.5276 39.3554 53.6334 39.5998 53.7667L42.9998 49.5334C42.5109 49.0222 42.1776 48.4498 41.9998 47.816C41.8221 47.1831 41.7887 46.5445 41.8998 45.9L36.9332 44.2667C36.6443 44.8 36.2385 45.2222 35.7158 45.5334C35.1941 45.8445 34.6221 46 33.9998 46C33.0665 46 32.2776 45.6778 31.6332 45.0334C30.9887 44.3889 30.6665 43.6 30.6665 42.6667C30.6665 41.7334 30.9887 40.9445 31.6332 40.3C32.2776 39.6556 33.0665 39.3334 33.9998 39.3334C34.9332 39.3334 35.7221 39.6556 36.3665 40.3C37.0109 40.9445 37.3332 41.7334 37.3332 42.6667C37.3332 42.7778 37.3278 42.8667 37.3172 42.9334C37.3056 43 37.2998 43.0556 37.2998 43.1L42.2665 44.8334C42.5554 44.2778 42.9718 43.7889 43.5158 43.3667C44.0607 42.9445 44.6887 42.6778 45.3998 42.5667V37.2667C44.5554 37.1111 43.8887 36.7165 43.3998 36.0827C42.9109 35.4498 42.6665 34.7556 42.6665 34C42.6665 33.0667 42.9887 32.2778 43.6332 31.6334C44.2776 30.9889 45.0665 30.6667 45.9998 30.6667C46.9332 30.6667 47.7221 30.9889 48.3665 31.6334C49.0109 32.2778 49.3332 33.0667 49.3332 34C49.3332 34.7556 49.0887 35.4498 48.5998 36.0827C48.1109 36.7165 47.4443 37.1111 46.5998 37.2667V42.5667C47.3109 42.6778 47.9332 42.9445 48.4665 43.3667C48.9998 43.7889 49.4221 44.2778 49.7332 44.8334L54.6998 43.1C54.6776 43.0334 54.6665 42.9725 54.6665 42.9174V42.6667C54.6665 41.7334 54.9887 40.9445 55.6332 40.3C56.2776 39.6556 57.0665 39.3334 57.9998 39.3334C58.9332 39.3334 59.7221 39.6556 60.3665 40.3C61.0109 40.9445 61.3332 41.7334 61.3332 42.6667C61.3332 43.6 61.0109 44.3889 60.3665 45.0334C59.7221 45.6778 58.9332 46 57.9998 46C57.3776 46 56.8052 45.8445 56.2825 45.5334C55.7607 45.2222 55.3554 44.8 55.0665 44.2667L50.0998 45.9C50.2109 46.5445 50.1776 47.1831 49.9998 47.816C49.8221 48.4498 49.4887 49.0111 48.9998 49.5L52.3998 53.7334C52.6443 53.6222 52.9052 53.5276 53.1825 53.4494C53.4607 53.372 53.7332 53.3334 53.9998 53.3334C54.9332 53.3334 55.7221 53.6556 56.3665 54.3C57.0109 54.9445 57.3332 55.7334 57.3332 56.6667C57.3332 57.6 57.0109 58.3889 56.3665 59.0334C55.7221 59.6778 54.9332 60 53.9998 60C53.0665 60 52.2776 59.6778 51.6332 59.0334C50.9887 58.3889 50.6665 57.6 50.6665 56.6667C50.6665 56.2667 50.7274 55.8836 50.8492 55.5174C50.9718 55.1502 51.1887 54.8111 51.4998 54.5L48.0998 50.2334C47.4998 50.6334 46.8052 50.8334 46.0158 50.8334C45.2274 50.8334 44.5221 50.6334 43.8998 50.2334L40.4998 54.5C40.7887 54.8111 40.9998 55.1502 41.1332 55.5174C41.2665 55.8836 41.3332 56.2667 41.3332 56.6667C41.3332 57.6 41.0109 58.3889 40.3665 59.0334C39.7221 59.6778 38.9332 60 37.9998 60ZM33.9998 44.6667C34.5554 44.6667 35.0274 44.472 35.4158 44.0827C35.8052 43.6942 35.9998 43.2222 35.9998 42.6667C35.9998 42.1111 35.8052 41.6391 35.4158 41.2507C35.0274 40.8614 34.5554 40.6667 33.9998 40.6667C33.4443 40.6667 32.9723 40.8614 32.5838 41.2507C32.1945 41.6391 31.9998 42.1111 31.9998 42.6667C31.9998 43.2222 32.1945 43.6942 32.5838 44.0827C32.9723 44.472 33.4443 44.6667 33.9998 44.6667ZM37.9998 58.6667C38.5554 58.6667 39.0274 58.472 39.4158 58.0827C39.8052 57.6942 39.9998 57.2222 39.9998 56.6667C39.9998 56.1111 39.8052 55.6391 39.4158 55.2507C39.0274 54.8614 38.5554 54.6667 37.9998 54.6667C37.4443 54.6667 36.9723 54.8614 36.5838 55.2507C36.1945 55.6391 35.9998 56.1111 35.9998 56.6667C35.9998 57.2222 36.1945 57.6942 36.5838 58.0827C36.9723 58.472 37.4443 58.6667 37.9998 58.6667ZM45.9998 36C46.5554 36 47.0274 35.8054 47.4158 35.416C47.8052 35.0276 47.9998 34.5556 47.9998 34C47.9998 33.4445 47.8052 32.9725 47.4158 32.584C47.0274 32.1947 46.5554 32 45.9998 32C45.4443 32 44.9723 32.1947 44.5838 32.584C44.1945 32.9725 43.9998 33.4445 43.9998 34C43.9998 34.5556 44.1945 35.0276 44.5838 35.416C44.9723 35.8054 45.4443 36 45.9998 36ZM45.9998 49.5C46.7776 49.5 47.4443 49.2222 47.9998 48.6667C48.5554 48.1111 48.8332 47.4445 48.8332 46.6667C48.8332 45.8889 48.5554 45.2222 47.9998 44.6667C47.4443 44.1111 46.7776 43.8334 45.9998 43.8334C45.2221 43.8334 44.5554 44.1111 43.9998 44.6667C43.4443 45.2222 43.1665 45.8889 43.1665 46.6667C43.1665 47.4445 43.4443 48.1111 43.9998 48.6667C44.5554 49.2222 45.2221 49.5 45.9998 49.5ZM53.9998 58.6667C54.5554 58.6667 55.0274 58.472 55.4158 58.0827C55.8052 57.6942 55.9998 57.2222 55.9998 56.6667C55.9998 56.1111 55.8052 55.6391 55.4158 55.2507C55.0274 54.8614 54.5554 54.6667 53.9998 54.6667C53.4443 54.6667 52.9723 54.8614 52.5838 55.2507C52.1945 55.6391 51.9998 56.1111 51.9998 56.6667C51.9998 57.2222 52.1945 57.6942 52.5838 58.0827C52.9723 58.472 53.4443 58.6667 53.9998 58.6667ZM57.9998 44.6667C58.5554 44.6667 59.0274 44.472 59.4158 44.0827C59.8052 43.6942 59.9998 43.2222 59.9998 42.6667C59.9998 42.1111 59.8052 41.6391 59.4158 41.2507C59.0274 40.8614 58.5554 40.6667 57.9998 40.6667C57.4443 40.6667 56.9723 40.8614 56.5838 41.2507C56.1945 41.6391 55.9998 42.1111 55.9998 42.6667C55.9998 43.2222 56.1945 43.6942 56.5838 44.0827C56.9723 44.472 57.4443 44.6667 57.9998 44.6667Z" fill="white" fill-opacity="0.98"/>
</g>
</svg>
