<svg width="32" height="32" viewBox="0 0 32 32" fill="none" xmlns="http://www.w3.org/2000/svg">
<mask id="mask0_189_1932" style="mask-type:alpha" maskUnits="userSpaceOnUse" x="0" y="0" width="32" height="32">
<rect width="32" height="32" fill="#D9D9D9"/>
</mask>
<g mask="url(#mask0_189_1932)">
<path d="M13.5665 3.06665H15.7665L15.9332 4.63332C16.1554 4.74443 16.3389 4.83865 16.4838 4.91598C16.6278 4.99421 16.7665 5.08887 16.8998 5.19998L18.3998 4.56665L19.4998 6.49998L18.2665 7.43332V8.53332L19.4998 9.49998L18.3998 11.4333L16.8998 10.8C16.7443 10.9111 16.5887 11.0164 16.4332 11.116C16.2776 11.2164 16.1109 11.3 15.9332 11.3666L15.7665 12.9333H13.5665L13.3998 11.3666C13.2443 11.3 13.0834 11.2222 12.9172 11.1333C12.7501 11.0444 12.6109 10.9444 12.4998 10.8333L12.2665 11.0333V18.3333L12.1332 18.1333L11.0665 18.6V11.3666L9.8665 9.49998L11.0665 8.56665V7.46665L9.83317 6.49998L10.9332 4.56665L12.4332 5.19998C12.5887 5.08887 12.7443 4.98309 12.8998 4.88265C13.0554 4.78309 13.2221 4.69998 13.3998 4.63332L13.5665 3.06665ZM14.6665 10.4C15.3332 10.4 15.8998 10.1667 16.3665 9.69998C16.8332 9.23332 17.0665 8.66665 17.0665 7.99998C17.0665 7.33332 16.8332 6.76665 16.3665 6.29998C15.8998 5.83332 15.3332 5.59998 14.6665 5.59998C13.9998 5.59998 13.4332 5.83332 12.9665 6.29998C12.4998 6.76665 12.2665 7.33332 12.2665 7.99998C12.2665 8.66665 12.4998 9.23332 12.9665 9.69998C13.4332 10.1667 13.9998 10.4 14.6665 10.4ZM22.8998 27.6L22.7332 26.0333C22.5109 25.9222 22.3278 25.8275 22.1838 25.7493C22.0389 25.672 21.8998 25.5778 21.7665 25.4667L20.2665 26.1L19.1665 24.1667L20.3998 23.2333V22.1333L19.1665 21.2L20.2665 19.2333L21.7665 19.8667C21.8998 19.7555 22.0332 19.6555 22.1665 19.5667C22.2998 19.4778 22.4443 19.4 22.5998 19.3333L22.7332 18.8333L15.5332 13.8H16.5665L16.6332 13.1333L23.2332 17.7333H25.0998L25.2665 19.3C25.4887 19.4111 25.6723 19.5058 25.8172 19.584C25.9612 19.6613 26.0998 19.7555 26.2332 19.8667L27.7332 19.2333L28.8332 21.1667L27.5998 22.1V23.2L28.8332 24.1667L27.7332 26.1L26.2332 25.4667L25.7665 25.8C25.611 25.9111 25.4443 25.9889 25.2665 26.0333L25.0998 27.6H22.8998ZM23.9998 25.0667C24.6665 25.0667 25.2332 24.8333 25.6998 24.3667C26.1665 23.9 26.3998 23.3333 26.3998 22.6667C26.3998 22 26.1665 21.4333 25.6998 20.9667C25.2332 20.5 24.6665 20.2667 23.9998 20.2667C23.3332 20.2667 22.7665 20.5 22.2998 20.9667C21.8332 21.4333 21.5998 22 21.5998 22.6667C21.5998 23.3333 21.8332 23.9 22.2998 24.3667C22.7665 24.8333 23.3332 25.0667 23.9998 25.0667ZM6.89984 27.6L6.73317 26.0333C6.53317 25.9444 6.35539 25.8555 6.19984 25.7667C6.04428 25.6778 5.89984 25.5778 5.7665 25.4667L4.2665 26.1L3.1665 24.1667L4.39984 23.2333V22.1333L3.1665 21.1667L4.2665 19.2333L5.7665 19.8667C5.92206 19.7555 6.07762 19.6498 6.23317 19.5493C6.38873 19.4498 6.55539 19.3667 6.73317 19.3L6.89984 17.7333H9.09984L9.2665 19.3C9.48873 19.4111 9.67228 19.5058 9.81717 19.584C9.96117 19.6613 10.0998 19.7555 10.2332 19.8667L11.7332 19.2333L12.8332 21.1667L11.5998 22.1V22.584C11.5998 22.8169 11.5776 23.0111 11.5332 23.1667C11.6221 23.2333 11.6941 23.2942 11.7492 23.3493L11.9332 23.5333L19.2332 19.3333L18.1332 21.2L18.2332 21.2667L12.6332 24.5L11.7332 26.1L10.2332 25.4667C10.0776 25.5778 9.92206 25.6831 9.7665 25.7827C9.61095 25.8831 9.44428 25.9667 9.2665 26.0333L9.09984 27.6H6.89984ZM7.99984 25.0667C8.6665 25.0667 9.23317 24.8333 9.69984 24.3667C10.1665 23.9 10.3998 23.3333 10.3998 22.6667C10.3998 22 10.1665 21.4333 9.69984 20.9667C9.23317 20.5 8.6665 20.2667 7.99984 20.2667C7.33317 20.2667 6.7665 20.5 6.29984 20.9667C5.83317 21.4333 5.59984 22 5.59984 22.6667C5.59984 23.3333 5.83317 23.9 6.29984 24.3667C6.7665 24.8333 7.33317 25.0667 7.99984 25.0667Z" fill="white" fill-opacity="0.98"/>
</g>
</svg>
