<svg width="92" height="92" viewBox="0 0 92 92" fill="none" xmlns="http://www.w3.org/2000/svg">
<circle cx="46" cy="46" r="46" fill="#3C3C3C"/>
<mask id="mask0_189_1909" style="mask-type:alpha" maskUnits="userSpaceOnUse" x="30" y="30" width="32" height="32">
<rect x="30" y="30" width="32" height="32" fill="#D9D9D9"/>
</mask>
<g mask="url(#mask0_189_1909)">
<path d="M44.5998 49.8L51.1998 43.2L50.2665 42.2333L44.5998 47.9L41.7332 45.0666L40.7998 46L44.5998 49.8ZM45.9998 57.9333C43.3109 57.1555 41.0829 55.5386 39.3158 53.0826C37.5496 50.6275 36.6665 47.8666 36.6665 44.8V37.6L45.9998 34.1L55.3332 37.6V44.8C55.3332 47.8666 54.4496 50.6275 52.6825 53.0826C50.9163 55.5386 48.6887 57.1555 45.9998 57.9333ZM45.9998 56.5333C48.3109 55.8 50.2221 54.3333 51.7332 52.1333C53.2443 49.9333 53.9998 47.4889 53.9998 44.8V38.5L45.9998 35.5333L37.9998 38.5V44.8C37.9998 47.4889 38.7554 49.9333 40.2665 52.1333C41.7776 54.3333 43.6887 55.8 45.9998 56.5333Z" fill="white" fill-opacity="0.98"/>
</g>
</svg>
