<svg width="32" height="32" viewBox="0 0 32 32" fill="none" xmlns="http://www.w3.org/2000/svg">
<mask id="mask0_191_2001" style="mask-type:alpha" maskUnits="userSpaceOnUse" x="0" y="0" width="32" height="32">
<rect width="32" height="32" fill="#D9D9D9"/>
</mask>
<g mask="url(#mask0_191_2001)">
<path d="M9.33333 18.1667C9.55556 18.1667 9.75022 18.0836 9.91733 17.9173C10.0836 17.7502 10.1667 17.5556 10.1667 17.3333C10.1667 17.1111 10.0836 16.9164 9.91733 16.7493C9.75022 16.5831 9.55556 16.5 9.33333 16.5C9.11111 16.5 8.91644 16.5831 8.74933 16.7493C8.58311 16.9164 8.5 17.1111 8.5 17.3333C8.5 17.5556 8.58311 17.7502 8.74933 17.9173C8.91644 18.0836 9.11111 18.1667 9.33333 18.1667ZM9.33333 12.8333C9.55556 12.8333 9.75022 12.7502 9.91733 12.584C10.0836 12.4169 10.1667 12.2222 10.1667 12C10.1667 11.7778 10.0836 11.5831 9.91733 11.416C9.75022 11.2498 9.55556 11.1667 9.33333 11.1667C9.11111 11.1667 8.91644 11.2498 8.74933 11.416C8.58311 11.5831 8.5 11.7778 8.5 12C8.5 12.2222 8.58311 12.4169 8.74933 12.584C8.91644 12.7502 9.11111 12.8333 9.33333 12.8333ZM12.1667 18H23.3333V16.6667H12.1667V18ZM12.1667 12.6667H23.3333V11.3333H12.1667V12.6667ZM12 26.6667V24H6.16667C5.54444 24 5.028 23.7947 4.61733 23.384C4.20578 22.9724 4 22.4556 4 21.8333V7.5C4 6.87778 4.20578 6.36134 4.61733 5.95067C5.028 5.53911 5.54444 5.33334 6.16667 5.33334H25.8333C26.4556 5.33334 26.9724 5.53911 27.384 5.95067C27.7947 6.36134 28 6.87778 28 7.5V21.8333C28 22.4556 27.7947 22.9724 27.384 23.384C26.9724 23.7947 26.4556 24 25.8333 24H20V26.6667H12ZM6.16667 22.6667H25.8333C26.0556 22.6667 26.2498 22.5831 26.416 22.416C26.5831 22.2498 26.6667 22.0556 26.6667 21.8333V7.5C26.6667 7.27778 26.5831 7.08356 26.416 6.91734C26.2498 6.75022 26.0556 6.66667 25.8333 6.66667H6.16667C5.94444 6.66667 5.75022 6.75022 5.584 6.91734C5.41689 7.08356 5.33333 7.27778 5.33333 7.5V21.8333C5.33333 22.0556 5.41689 22.2498 5.584 22.416C5.75022 22.5831 5.94444 22.6667 6.16667 22.6667Z" fill="white" fill-opacity="0.98"/>
</g>
</svg>
