<svg width="32" height="32" viewBox="0 0 32 32" fill="none" xmlns="http://www.w3.org/2000/svg">
<mask id="mask0_189_1953" style="mask-type:alpha" maskUnits="userSpaceOnUse" x="0" y="0" width="32" height="32">
<rect width="32" height="32" fill="#D9D9D9"/>
</mask>
<g mask="url(#mask0_189_1953)">
<path d="M7.99984 30C7.0665 30 6.27762 29.6778 5.63317 29.0334C4.98873 28.3889 4.6665 27.6 4.6665 26.6667C4.6665 25.7334 4.98873 24.9445 5.63317 24.3C6.27762 23.6556 7.0665 23.3334 7.99984 23.3334C8.2665 23.3334 8.53895 23.372 8.81717 23.4494C9.0945 23.5276 9.35539 23.6334 9.59984 23.7667L12.9998 19.5334C12.5109 19.0222 12.1776 18.4498 11.9998 17.816C11.8221 17.1831 11.7887 16.5445 11.8998 15.9L6.93317 14.2667C6.64428 14.8 6.2385 15.2222 5.71584 15.5334C5.19406 15.8445 4.62206 16 3.99984 16C3.0665 16 2.27762 15.6778 1.63317 15.0334C0.988726 14.3889 0.666504 13.6 0.666504 12.6667C0.666504 11.7334 0.988726 10.9445 1.63317 10.3C2.27762 9.65558 3.0665 9.33335 3.99984 9.33335C4.93317 9.33335 5.72206 9.65558 6.3665 10.3C7.01095 10.9445 7.33317 11.7334 7.33317 12.6667C7.33317 12.7778 7.32784 12.8667 7.31717 12.9334C7.30562 13 7.29984 13.0556 7.29984 13.1L12.2665 14.8334C12.5554 14.2778 12.9718 13.7889 13.5158 13.3667C14.0607 12.9445 14.6887 12.6778 15.3998 12.5667V7.26669C14.5554 7.11113 13.8887 6.71646 13.3998 6.08269C12.9109 5.4498 12.6665 4.75558 12.6665 4.00002C12.6665 3.06669 12.9887 2.2778 13.6332 1.63335C14.2776 0.988909 15.0665 0.666687 15.9998 0.666687C16.9332 0.666687 17.7221 0.988909 18.3665 1.63335C19.0109 2.2778 19.3332 3.06669 19.3332 4.00002C19.3332 4.75558 19.0887 5.4498 18.5998 6.08269C18.1109 6.71646 17.4443 7.11113 16.5998 7.26669V12.5667C17.3109 12.6778 17.9332 12.9445 18.4665 13.3667C18.9998 13.7889 19.4221 14.2778 19.7332 14.8334L24.6998 13.1C24.6776 13.0334 24.6665 12.9725 24.6665 12.9174V12.6667C24.6665 11.7334 24.9887 10.9445 25.6332 10.3C26.2776 9.65558 27.0665 9.33335 27.9998 9.33335C28.9332 9.33335 29.7221 9.65558 30.3665 10.3C31.0109 10.9445 31.3332 11.7334 31.3332 12.6667C31.3332 13.6 31.0109 14.3889 30.3665 15.0334C29.7221 15.6778 28.9332 16 27.9998 16C27.3776 16 26.8052 15.8445 26.2825 15.5334C25.7607 15.2222 25.3554 14.8 25.0665 14.2667L20.0998 15.9C20.2109 16.5445 20.1776 17.1831 19.9998 17.816C19.8221 18.4498 19.4887 19.0111 18.9998 19.5L22.3998 23.7334C22.6443 23.6222 22.9052 23.5276 23.1825 23.4494C23.4607 23.372 23.7332 23.3334 23.9998 23.3334C24.9332 23.3334 25.7221 23.6556 26.3665 24.3C27.0109 24.9445 27.3332 25.7334 27.3332 26.6667C27.3332 27.6 27.0109 28.3889 26.3665 29.0334C25.7221 29.6778 24.9332 30 23.9998 30C23.0665 30 22.2776 29.6778 21.6332 29.0334C20.9887 28.3889 20.6665 27.6 20.6665 26.6667C20.6665 26.2667 20.7274 25.8836 20.8492 25.5174C20.9718 25.1502 21.1887 24.8111 21.4998 24.5L18.0998 20.2334C17.4998 20.6334 16.8052 20.8334 16.0158 20.8334C15.2274 20.8334 14.5221 20.6334 13.8998 20.2334L10.4998 24.5C10.7887 24.8111 10.9998 25.1502 11.1332 25.5174C11.2665 25.8836 11.3332 26.2667 11.3332 26.6667C11.3332 27.6 11.0109 28.3889 10.3665 29.0334C9.72206 29.6778 8.93317 30 7.99984 30ZM3.99984 14.6667C4.55539 14.6667 5.02739 14.472 5.41584 14.0827C5.80517 13.6942 5.99984 13.2222 5.99984 12.6667C5.99984 12.1111 5.80517 11.6391 5.41584 11.2507C5.02739 10.8614 4.55539 10.6667 3.99984 10.6667C3.44428 10.6667 2.97228 10.8614 2.58384 11.2507C2.1945 11.6391 1.99984 12.1111 1.99984 12.6667C1.99984 13.2222 2.1945 13.6942 2.58384 14.0827C2.97228 14.472 3.44428 14.6667 3.99984 14.6667ZM7.99984 28.6667C8.55539 28.6667 9.02739 28.472 9.41584 28.0827C9.80517 27.6942 9.99984 27.2222 9.99984 26.6667C9.99984 26.1111 9.80517 25.6391 9.41584 25.2507C9.02739 24.8614 8.55539 24.6667 7.99984 24.6667C7.44428 24.6667 6.97228 24.8614 6.58384 25.2507C6.1945 25.6391 5.99984 26.1111 5.99984 26.6667C5.99984 27.2222 6.1945 27.6942 6.58384 28.0827C6.97228 28.472 7.44428 28.6667 7.99984 28.6667ZM15.9998 6.00002C16.5554 6.00002 17.0274 5.80535 17.4158 5.41602C17.8052 5.02758 17.9998 4.55558 17.9998 4.00002C17.9998 3.44446 17.8052 2.97246 17.4158 2.58402C17.0274 2.19469 16.5554 2.00002 15.9998 2.00002C15.4443 2.00002 14.9723 2.19469 14.5838 2.58402C14.1945 2.97246 13.9998 3.44446 13.9998 4.00002C13.9998 4.55558 14.1945 5.02758 14.5838 5.41602C14.9723 5.80535 15.4443 6.00002 15.9998 6.00002ZM15.9998 19.5C16.7776 19.5 17.4443 19.2222 17.9998 18.6667C18.5554 18.1111 18.8332 17.4445 18.8332 16.6667C18.8332 15.8889 18.5554 15.2222 17.9998 14.6667C17.4443 14.1111 16.7776 13.8334 15.9998 13.8334C15.2221 13.8334 14.5554 14.1111 13.9998 14.6667C13.4443 15.2222 13.1665 15.8889 13.1665 16.6667C13.1665 17.4445 13.4443 18.1111 13.9998 18.6667C14.5554 19.2222 15.2221 19.5 15.9998 19.5ZM23.9998 28.6667C24.5554 28.6667 25.0274 28.472 25.4158 28.0827C25.8052 27.6942 25.9998 27.2222 25.9998 26.6667C25.9998 26.1111 25.8052 25.6391 25.4158 25.2507C25.0274 24.8614 24.5554 24.6667 23.9998 24.6667C23.4443 24.6667 22.9723 24.8614 22.5838 25.2507C22.1945 25.6391 21.9998 26.1111 21.9998 26.6667C21.9998 27.2222 22.1945 27.6942 22.5838 28.0827C22.9723 28.472 23.4443 28.6667 23.9998 28.6667ZM27.9998 14.6667C28.5554 14.6667 29.0274 14.472 29.4158 14.0827C29.8052 13.6942 29.9998 13.2222 29.9998 12.6667C29.9998 12.1111 29.8052 11.6391 29.4158 11.2507C29.0274 10.8614 28.5554 10.6667 27.9998 10.6667C27.4443 10.6667 26.9723 10.8614 26.5838 11.2507C26.1945 11.6391 25.9998 12.1111 25.9998 12.6667C25.9998 13.2222 26.1945 13.6942 26.5838 14.0827C26.9723 14.472 27.4443 14.6667 27.9998 14.6667Z" fill="white" fill-opacity="0.98"/>
</g>
</svg>
