<svg width="92" height="92" viewBox="0 0 92 92" fill="none" xmlns="http://www.w3.org/2000/svg">
<circle cx="46" cy="46" r="46" fill="#3C3C3C"/>
<mask id="mask0_189_1930" style="mask-type:alpha" maskUnits="userSpaceOnUse" x="30" y="30" width="32" height="32">
<rect x="30" y="30" width="32" height="32" fill="#D9D9D9"/>
</mask>
<g mask="url(#mask0_189_1930)">
<path d="M43.5665 33.0667H45.7665L45.9332 34.6333C46.1554 34.7444 46.3389 34.8387 46.4838 34.916C46.6278 34.9942 46.7665 35.0889 46.8998 35.2L48.3998 34.5667L49.4998 36.5L48.2665 37.4333V38.5333L49.4998 39.5L48.3998 41.4333L46.8998 40.8C46.7443 40.9111 46.5887 41.0164 46.4332 41.116C46.2776 41.2164 46.1109 41.3 45.9332 41.3666L45.7665 42.9333H43.5665L43.3998 41.3666C43.2443 41.3 43.0834 41.2222 42.9172 41.1333C42.7501 41.0444 42.6109 40.9444 42.4998 40.8333L42.2665 41.0333V48.3333L42.1332 48.1333L41.0665 48.6V41.3666L39.8665 39.5L41.0665 38.5667V37.4667L39.8332 36.5L40.9332 34.5667L42.4332 35.2C42.5887 35.0889 42.7443 34.9831 42.8998 34.8827C43.0554 34.7831 43.2221 34.7 43.3998 34.6333L43.5665 33.0667ZM44.6665 40.4C45.3332 40.4 45.8998 40.1667 46.3665 39.7C46.8332 39.2333 47.0665 38.6667 47.0665 38C47.0665 37.3333 46.8332 36.7667 46.3665 36.3C45.8998 35.8333 45.3332 35.6 44.6665 35.6C43.9998 35.6 43.4332 35.8333 42.9665 36.3C42.4998 36.7667 42.2665 37.3333 42.2665 38C42.2665 38.6667 42.4998 39.2333 42.9665 39.7C43.4332 40.1667 43.9998 40.4 44.6665 40.4ZM52.8998 57.6L52.7332 56.0333C52.5109 55.9222 52.3278 55.8275 52.1838 55.7493C52.0389 55.672 51.8998 55.5778 51.7665 55.4667L50.2665 56.1L49.1665 54.1667L50.3998 53.2333V52.1333L49.1665 51.2L50.2665 49.2333L51.7665 49.8667C51.8998 49.7555 52.0332 49.6555 52.1665 49.5667C52.2998 49.4778 52.4443 49.4 52.5998 49.3333L52.7332 48.8333L45.5332 43.8H46.5665L46.6332 43.1333L53.2332 47.7333H55.0998L55.2665 49.3C55.4887 49.4111 55.6723 49.5058 55.8172 49.584C55.9612 49.6613 56.0998 49.7555 56.2332 49.8667L57.7332 49.2333L58.8332 51.1667L57.5998 52.1V53.2L58.8332 54.1667L57.7332 56.1L56.2332 55.4667L55.7665 55.8C55.611 55.9111 55.4443 55.9889 55.2665 56.0333L55.0998 57.6H52.8998ZM53.9998 55.0667C54.6665 55.0667 55.2332 54.8333 55.6998 54.3667C56.1665 53.9 56.3998 53.3333 56.3998 52.6667C56.3998 52 56.1665 51.4333 55.6998 50.9667C55.2332 50.5 54.6665 50.2667 53.9998 50.2667C53.3332 50.2667 52.7665 50.5 52.2998 50.9667C51.8332 51.4333 51.5998 52 51.5998 52.6667C51.5998 53.3333 51.8332 53.9 52.2998 54.3667C52.7665 54.8333 53.3332 55.0667 53.9998 55.0667ZM36.8998 57.6L36.7332 56.0333C36.5332 55.9444 36.3554 55.8555 36.1998 55.7667C36.0443 55.6778 35.8998 55.5778 35.7665 55.4667L34.2665 56.1L33.1665 54.1667L34.3998 53.2333V52.1333L33.1665 51.1667L34.2665 49.2333L35.7665 49.8667C35.9221 49.7555 36.0776 49.6498 36.2332 49.5493C36.3887 49.4498 36.5554 49.3667 36.7332 49.3L36.8998 47.7333H39.0998L39.2665 49.3C39.4887 49.4111 39.6723 49.5058 39.8172 49.584C39.9612 49.6613 40.0998 49.7555 40.2332 49.8667L41.7332 49.2333L42.8332 51.1667L41.5998 52.1V52.584C41.5998 52.8169 41.5776 53.0111 41.5332 53.1667C41.6221 53.2333 41.6941 53.2942 41.7492 53.3493L41.9332 53.5333L49.2332 49.3333L48.1332 51.2L48.2332 51.2667L42.6332 54.5L41.7332 56.1L40.2332 55.4667C40.0776 55.5778 39.9221 55.6831 39.7665 55.7827C39.6109 55.8831 39.4443 55.9667 39.2665 56.0333L39.0998 57.6H36.8998ZM37.9998 55.0667C38.6665 55.0667 39.2332 54.8333 39.6998 54.3667C40.1665 53.9 40.3998 53.3333 40.3998 52.6667C40.3998 52 40.1665 51.4333 39.6998 50.9667C39.2332 50.5 38.6665 50.2667 37.9998 50.2667C37.3332 50.2667 36.7665 50.5 36.2998 50.9667C35.8332 51.4333 35.5998 52 35.5998 52.6667C35.5998 53.3333 35.8332 53.9 36.2998 54.3667C36.7665 54.8333 37.3332 55.0667 37.9998 55.0667Z" fill="white" fill-opacity="0.98"/>
</g>
</svg>
