<svg width="32" height="32" viewBox="0 0 32 32" fill="none" xmlns="http://www.w3.org/2000/svg">
<mask id="mask0_189_1925" style="mask-type:alpha" maskUnits="userSpaceOnUse" x="0" y="0" width="32" height="32">
<rect width="32" height="32" fill="#D9D9D9"/>
</mask>
<g mask="url(#mask0_189_1925)">
<path d="M16 26.6667C14.8 26.6667 13.6942 26.372 12.6827 25.7827C11.672 25.1942 10.8556 24.3778 10.2333 23.3334H6.5V22H9.66667C9.46667 21.3556 9.36133 20.6942 9.35067 20.016C9.33911 19.3387 9.33333 18.6667 9.33333 18H6.5V16.6667H9.33333C9.33333 15.9778 9.328 15.2942 9.31733 14.616C9.30578 13.9387 9.42222 13.2889 9.66667 12.6667H6.5V11.3334H10.2333C10.5667 10.7556 10.9778 10.2387 11.4667 9.78269C11.9556 9.32758 12.5 8.95558 13.1 8.66669L10.7333 6.26669L11.6 5.40002L14.4333 8.20002C14.9444 8.04447 15.4613 7.96669 15.984 7.96669C16.5058 7.96669 17.0333 8.04447 17.5667 8.20002L20.4333 5.40002L21.3333 6.26669L18.9333 8.66669C19.5333 8.95558 20.0724 9.32758 20.5507 9.78269C21.028 10.2387 21.4333 10.7556 21.7667 11.3334H25.5V12.6667H22.3333C22.5778 13.2889 22.6947 13.9387 22.684 14.616C22.6724 15.2942 22.6667 15.9778 22.6667 16.6667H25.5V18H22.6667C22.6667 18.6667 22.6613 19.3387 22.6507 20.016C22.6391 20.6942 22.5333 21.3556 22.3333 22H25.5V23.3334H21.7667C21.1444 24.3778 20.328 25.1942 19.3173 25.7827C18.3058 26.372 17.2 26.6667 16 26.6667ZM16 25.3334C17.4667 25.3334 18.7222 24.8111 19.7667 23.7667C20.8111 22.7222 21.3333 21.4667 21.3333 20V14.6667C21.3333 13.2 20.8111 11.9445 19.7667 10.9C18.7222 9.85558 17.4667 9.33336 16 9.33336C14.5333 9.33336 13.2778 9.85558 12.2333 10.9C11.1889 11.9445 10.6667 13.2 10.6667 14.6667V20C10.6667 21.4667 11.1889 22.7222 12.2333 23.7667C13.2778 24.8111 14.5333 25.3334 16 25.3334ZM13.7333 20.6667H18.2667V19.3334H13.7333V20.6667ZM13.7333 15.3334H18.2667V14H13.7333V15.3334Z" fill="white" fill-opacity="0.98"/>
</g>
</svg>
