<svg width="32" height="32" viewBox="0 0 32 32" fill="none" xmlns="http://www.w3.org/2000/svg">
<mask id="mask0_191_1993" style="mask-type:alpha" maskUnits="userSpaceOnUse" x="0" y="0" width="32" height="32">
<rect width="32" height="32" fill="#D9D9D9"/>
</mask>
<g mask="url(#mask0_191_1993)">
<path d="M10.1667 29.3333C9.54444 29.3333 9.028 29.128 8.61733 28.7173C8.20578 28.3058 8 27.7889 8 27.1667V4.83333C8 4.21111 8.20578 3.69422 8.61733 3.28266C9.028 2.872 9.54444 2.66666 10.1667 2.66666H21.8333C22.4556 2.66666 22.9724 2.872 23.384 3.28266C23.7947 3.69422 24 4.21111 24 4.83333V27.1667C24 27.7889 23.7947 28.3058 23.384 28.7173C22.9724 29.128 22.4556 29.3333 21.8333 29.3333H10.1667ZM9.33333 23.4V27.1667C9.33333 27.3889 9.41689 27.5831 9.584 27.7493C9.75022 27.9164 9.94444 28 10.1667 28H21.8333C22.0556 28 22.2498 27.9164 22.416 27.7493C22.5831 27.5831 22.6667 27.3889 22.6667 27.1667V23.4H9.33333ZM16 26.7333C16.2667 26.7333 16.5058 26.6276 16.7173 26.416C16.928 26.2053 17.0333 25.9667 17.0333 25.7C17.0333 25.4111 16.928 25.1667 16.7173 24.9667C16.5058 24.7667 16.2667 24.6667 16 24.6667C15.7333 24.6667 15.4947 24.7667 15.284 24.9667C15.0724 25.1667 14.9667 25.4111 14.9667 25.7C14.9667 25.9667 15.0724 26.2053 15.284 26.416C15.4947 26.6276 15.7333 26.7333 16 26.7333ZM9.33333 22.0667H22.6667V7.33333H9.33333V22.0667ZM9.33333 6H22.6667V4.83333C22.6667 4.61111 22.5831 4.41689 22.416 4.25066C22.2498 4.08355 22.0556 4 21.8333 4H10.1667C9.94444 4 9.75022 4.08355 9.584 4.25066C9.41689 4.41689 9.33333 4.61111 9.33333 4.83333V6ZM9.33333 23.4V28V27.1667V23.4Z" fill="white" fill-opacity="0.98"/>
</g>
</svg>
