<svg width="52" height="52" viewBox="0 0 52 52" fill="none" xmlns="http://www.w3.org/2000/svg">
<mask id="mask0_191_2110" style="mask-type:alpha" maskUnits="userSpaceOnUse" x="0" y="0" width="52" height="52">
<rect width="52" height="52" fill="#D9D9D9"/>
</mask>
<g mask="url(#mask0_191_2110)">
<path d="M21.0708 43.9291C20.782 44.218 20.4476 44.3625 20.0677 44.3625C19.6892 44.3625 19.3556 44.218 19.0667 43.9291C18.8139 43.6763 18.6788 43.3694 18.6615 43.0083C18.6427 42.6472 18.7417 42.3222 18.9583 42.0333L27.8417 29.6833L13 28.2208C12.2056 28.1486 11.6906 27.742 11.4552 27.001C11.2212 26.2614 11.3931 25.6208 11.9708 25.0791L30.9292 8.07078C31.2181 7.7819 31.5525 7.63745 31.9323 7.63745C32.3108 7.63745 32.6445 7.7819 32.9333 8.07078C33.1861 8.32356 33.3212 8.63051 33.3385 8.99162C33.3573 9.35273 33.2583 9.67773 33.0417 9.96662L24.1583 22.3166L39 23.7791C39.7945 23.8513 40.3087 24.2572 40.5427 24.9968C40.7781 25.7378 40.607 26.3791 40.0292 26.9208L21.0708 43.9291Z" fill="white" fill-opacity="0.98"/>
</g>
</svg>
