<svg width="32" height="32" viewBox="0 0 32 32" fill="none" xmlns="http://www.w3.org/2000/svg">
<mask id="mask0_191_1985" style="mask-type:alpha" maskUnits="userSpaceOnUse" x="0" y="0" width="32" height="32">
<rect width="32" height="32" fill="#D9D9D9"/>
</mask>
<g mask="url(#mask0_191_1985)">
<path d="M10.3667 26.6667V24.8667L12.5667 22.6667H6.16667C5.54444 22.6667 5.028 22.4613 4.61733 22.0507C4.20578 21.6391 4 21.1222 4 20.5V7.5C4 6.87778 4.20578 6.36134 4.61733 5.95067C5.028 5.53911 5.54444 5.33334 6.16667 5.33334H25.8333C26.4556 5.33334 26.9724 5.53911 27.384 5.95067C27.7947 6.36134 28 6.87778 28 7.5V20.5C28 21.1222 27.7947 21.6391 27.384 22.0507C26.9724 22.4613 26.4556 22.6667 25.8333 22.6667H19.4333L21.6333 24.8667V26.6667H10.3667ZM6.16667 21.3333H25.8333C26.0556 21.3333 26.2498 21.2498 26.416 21.0827C26.5831 20.9164 26.6667 20.7222 26.6667 20.5V7.5C26.6667 7.27778 26.5831 7.08356 26.416 6.91734C26.2498 6.75022 26.0556 6.66667 25.8333 6.66667H6.16667C5.94444 6.66667 5.75022 6.75022 5.584 6.91734C5.41689 7.08356 5.33333 7.27778 5.33333 7.5V20.5C5.33333 20.7222 5.41689 20.9164 5.584 21.0827C5.75022 21.2498 5.94444 21.3333 6.16667 21.3333Z" fill="white"/>
</g>
</svg>
