<svg width="32" height="32" viewBox="0 0 32 32" fill="none" xmlns="http://www.w3.org/2000/svg">
<mask id="mask0_189_1946" style="mask-type:alpha" maskUnits="userSpaceOnUse" x="0" y="0" width="32" height="32">
<rect width="32" height="32" fill="#D9D9D9"/>
</mask>
<g mask="url(#mask0_189_1946)">
<path d="M14.9332 25.5334L8.39984 21.7334C8.0665 21.5556 7.80561 21.3 7.61717 20.9667C7.42784 20.6334 7.33317 20.2667 7.33317 19.8667V12.3334C7.33317 11.9334 7.42784 11.5667 7.61717 11.2334C7.80561 10.9 8.0665 10.6334 8.39984 10.4334L14.9332 6.66669C15.2665 6.46669 15.6221 6.36669 15.9998 6.36669C16.3776 6.36669 16.7332 6.46669 17.0665 6.66669L23.5998 10.4334C23.9332 10.6334 24.1945 10.9 24.3838 11.2334C24.5723 11.5667 24.6665 11.9334 24.6665 12.3334V19.8667C24.6665 20.2667 24.5723 20.6334 24.3838 20.9667C24.1945 21.3 23.9332 21.5556 23.5998 21.7334L17.0665 25.5334C16.7332 25.7334 16.3776 25.8334 15.9998 25.8334C15.6221 25.8334 15.2665 25.7334 14.9332 25.5334ZM15.3332 24.2334V16.4667L8.6665 12.6667V19.8667C8.6665 20.0222 8.69984 20.1556 8.7665 20.2667C8.83317 20.3778 8.93317 20.4778 9.0665 20.5667L15.3332 24.2334ZM16.6665 24.2334L22.9332 20.5667C23.0665 20.4778 23.1665 20.3778 23.2332 20.2667C23.2998 20.1556 23.3332 20.0222 23.3332 19.8667V12.6667L16.6665 16.4667V24.2334ZM2.6665 8.00002V5.86669C2.6665 4.95558 2.97762 4.19469 3.59984 3.58402C4.22206 2.97246 4.9665 2.66669 5.83317 2.66669H7.99984V4.00002H5.83317C5.32206 4.00002 4.88873 4.1778 4.53317 4.53335C4.17762 4.88891 3.99984 5.32224 3.99984 5.83335V8.00002H2.6665ZM5.8665 29.3334C4.95539 29.3334 4.1945 29.0222 3.58384 28.4C2.97228 27.7778 2.6665 27.0334 2.6665 26.1667V24H3.99984V26.1667C3.99984 26.6778 4.17762 27.1111 4.53317 27.4667C4.88873 27.8222 5.32206 28 5.83317 28H7.99984V29.3334H5.8665ZM23.9998 29.0667V27.7334H26.1665C26.6776 27.7334 27.1109 27.5556 27.4665 27.2C27.8221 26.8445 27.9998 26.4111 27.9998 25.9V23.7334H29.3332V25.9C29.3332 26.7889 29.0221 27.5391 28.3998 28.1507C27.7776 28.7614 27.0332 29.0667 26.1665 29.0667H23.9998ZM27.9998 8.00002V5.83335C27.9998 5.32224 27.8221 4.88891 27.4665 4.53335C27.1109 4.1778 26.6776 4.00002 26.1665 4.00002H23.9998V2.66669H26.1332C27.0443 2.66669 27.8052 2.9778 28.4158 3.60002C29.0274 4.22224 29.3332 4.96669 29.3332 5.83335V8.00002H27.9998ZM15.9998 15.3L22.6665 11.4667L16.3998 7.86669C16.2665 7.7778 16.1332 7.73335 15.9998 7.73335C15.8665 7.73335 15.7332 7.7778 15.5998 7.86669L9.33317 11.4667L15.9998 15.3Z" fill="white" fill-opacity="0.98"/>
</g>
</svg>
