<svg width="30" height="38" viewBox="0 0 30 38" fill="none" xmlns="http://www.w3.org/2000/svg">
<path d="M10.0708 36.9292C9.78196 37.2181 9.44757 37.3625 9.06768 37.3625C8.68924 37.3625 8.35557 37.2181 8.06668 36.9292C7.8139 36.6764 7.67885 36.3695 7.66151 36.0083C7.64274 35.6472 7.74168 35.3222 7.95835 35.0333L16.8417 22.6833L2.00001 21.2208C1.20557 21.1486 0.690626 20.742 0.455182 20.001C0.221182 19.2615 0.393071 18.6208 0.970848 18.0792L19.9292 1.07085C20.2181 0.781956 20.5525 0.637512 20.9323 0.637512C21.3108 0.637512 21.6445 0.781956 21.9333 1.07085C22.1861 1.32362 22.3212 1.63057 22.3385 1.99168C22.3573 2.35279 22.2583 2.67779 22.0417 2.96668L13.1583 15.3167L28 16.7792C28.7945 16.8514 29.3087 17.2573 29.5427 17.9968C29.7781 18.7378 29.607 19.3792 29.0292 19.9208L10.0708 36.9292Z" fill="black" fill-opacity="0.98"/>
</svg>
