<svg width="40" height="40" viewBox="0 0 40 40" fill="none" xmlns="http://www.w3.org/2000/svg">
<path d="M12.4167 31.4292L20 25.6333L27.5833 31.4292L24.7667 22.0042L32.2958 16.6958H23.0333L20 6.8375L16.9667 16.6958H7.70417L15.2333 22.0042L12.4167 31.4292ZM20 39.5C17.2917 39.5 14.7552 38.9858 12.3907 37.9573C10.0247 36.9274 7.96633 35.5364 6.21567 33.7843C4.46356 32.0337 3.07256 29.9753 2.04267 27.6093C1.01422 25.2448 0.5 22.7083 0.5 20C0.5 17.2917 1.01422 14.7545 2.04267 12.3885C3.07256 10.0239 4.46356 7.96561 6.21567 6.2135C7.96633 4.46283 10.0247 3.07256 12.3907 2.04267C14.7552 1.01422 17.2917 0.5 20 0.5C22.7083 0.5 25.2455 1.01422 27.6115 2.04267C29.9761 3.07256 32.0344 4.46283 33.7865 6.2135C35.5372 7.96561 36.9274 10.0239 37.9573 12.3885C38.9858 14.7545 39.5 17.2917 39.5 20C39.5 22.7083 38.9858 25.2448 37.9573 27.6093C36.9274 29.9753 35.5372 32.0337 33.7865 33.7843C32.0344 35.5364 29.9761 36.9274 27.6115 37.9573C25.2455 38.9858 22.7083 39.5 20 39.5ZM20 37.3333C24.8389 37.3333 28.9375 35.6542 32.2958 32.2958C35.6542 28.9375 37.3333 24.8389 37.3333 20C37.3333 15.1611 35.6542 11.0625 32.2958 7.70417C28.9375 4.34583 24.8389 2.66667 20 2.66667C15.1611 2.66667 11.0625 4.34583 7.70417 7.70417C4.34583 11.0625 2.66667 15.1611 2.66667 20C2.66667 24.8389 4.34583 28.9375 7.70417 32.2958C11.0625 35.6542 15.1611 37.3333 20 37.3333Z" fill="black" fill-opacity="0.98"/>
</svg>
