<svg width="42" height="46" viewBox="0 0 42 46" fill="none" xmlns="http://www.w3.org/2000/svg">
<g filter="url(#filter0_d_189_1301)">
<path fill-rule="evenodd" clip-rule="evenodd" d="M18.5545 0.632702L18.324 0.5L18.0936 0.632702L-0.242969 11.1892L-0.475439 11.3231V11.5919V22.2706L-0.925781 22.5394L-0.475439 22.8018V33.2199V33.4871L-0.245074 33.6213L18.0914 44.3066L18.324 44.4421L18.5566 44.3066L36.8931 33.6213L37.1235 33.4871V33.2199V22.8018L37.5738 22.5394L37.1235 22.2706V11.5919V11.3231L36.891 11.1892L18.5545 0.632702ZM0.450487 32.5115V23.3414L8.31053 27.9216L0.450487 32.5115ZM0.99333 33.269L18.324 43.3681L35.7639 33.2055L27.7536 28.262L18.5566 33.6213L18.324 33.7569L18.0914 33.6213L9.23154 28.4584L0.99333 33.269ZM28.6622 27.7325L36.1976 32.3829V23.3414L28.6622 27.7325ZM36.1976 12.4085V21.718L28.3976 17.0632L36.1976 12.4085ZM18.5608 22.9336L27.4923 17.6035L35.7472 22.5299L18.324 32.6829L0.90083 22.5299L9.15577 17.6035L18.0873 22.9336L18.324 23.0749L18.5608 22.9336ZM0.450487 21.718L8.25045 17.0632L0.450487 12.4085V21.718ZM9.39255 16.6643L0.904912 11.5991L18.324 1.5707L35.7431 11.5991L27.2555 16.6643L18.324 21.9944L9.39255 16.6643Z" fill="white"/>
</g>
<defs>
<filter id="filter0_d_189_1301" x="-4.92578" y="0.5" width="46.4995" height="51.9421" filterUnits="userSpaceOnUse" color-interpolation-filters="sRGB">
<feFlood flood-opacity="0" result="BackgroundImageFix"/>
<feColorMatrix in="SourceAlpha" type="matrix" values="0 0 0 0 0 0 0 0 0 0 0 0 0 0 0 0 0 0 127 0" result="hardAlpha"/>
<feOffset dy="4"/>
<feGaussianBlur stdDeviation="2"/>
<feComposite in2="hardAlpha" operator="out"/>
<feColorMatrix type="matrix" values="0 0 0 0 0 0 0 0 0 0 0 0 0 0 0 0 0 0 0.25 0"/>
<feBlend mode="normal" in2="BackgroundImageFix" result="effect1_dropShadow_189_1301"/>
<feBlend mode="normal" in="SourceGraphic" in2="effect1_dropShadow_189_1301" result="shape"/>
</filter>
</defs>
</svg>
