<svg width="20" height="24" viewBox="0 0 20 24" fill="none" xmlns="http://www.w3.org/2000/svg">
<path d="M8.60002 15.8L15.2 9.19998L14.2667 8.23331L8.60002 13.9L5.73335 11.0666L4.80002 12L8.60002 15.8ZM10 23.9333C7.31113 23.1555 5.08313 21.5386 3.31602 19.0826C1.5498 16.6275 0.666687 13.8666 0.666687 10.8V3.59998L10 0.0999756L19.3334 3.59998V10.8C19.3334 13.8666 18.4498 16.6275 16.6827 19.0826C14.9165 21.5386 12.6889 23.1555 10 23.9333ZM10 22.5333C12.3111 21.8 14.2222 20.3333 15.7334 18.1333C17.2445 15.9333 18 13.4889 18 10.8V4.49998L10 1.53331L2.00002 4.49998V10.8C2.00002 13.4889 2.75558 15.9333 4.26669 18.1333C5.7778 20.3333 7.68891 21.8 10 22.5333Z" fill="black" fill-opacity="0.98"/>
</svg>
