<svg width="26" height="25" viewBox="0 0 26 25" fill="none" xmlns="http://www.w3.org/2000/svg">
<path d="M10.5667 0.0666504H12.7667L12.9334 1.63332C13.1556 1.74443 13.3392 1.83865 13.4841 1.91598C13.6281 1.99421 13.7667 2.08887 13.9001 2.19998L15.4001 1.56665L16.5001 3.49998L15.2667 4.43332V5.53332L16.5001 6.49998L15.4001 8.43332L13.9001 7.79998C13.7445 7.9111 13.589 8.01643 13.4334 8.11598C13.2779 8.21643 13.1112 8.29998 12.9334 8.36665L12.7667 9.93332H10.5667L10.4001 8.36665C10.2445 8.29998 10.0836 8.22221 9.91741 8.13332C9.7503 8.04443 9.61119 7.94443 9.50008 7.83332L9.26675 8.03332V15.3333L9.13342 15.1333L8.06675 15.6V8.36665L6.86675 6.49998L8.06675 5.56665V4.46665L6.83341 3.49998L7.93341 1.56665L9.43341 2.19998C9.58897 2.08887 9.74453 1.98309 9.90008 1.88265C10.0556 1.78309 10.2223 1.69998 10.4001 1.63332L10.5667 0.0666504ZM11.6667 7.39998C12.3334 7.39998 12.9001 7.16665 13.3667 6.69998C13.8334 6.23332 14.0667 5.66665 14.0667 4.99998C14.0667 4.33332 13.8334 3.76665 13.3667 3.29998C12.9001 2.83332 12.3334 2.59998 11.6667 2.59998C11.0001 2.59998 10.4334 2.83332 9.96675 3.29998C9.50008 3.76665 9.26675 4.33332 9.26675 4.99998C9.26675 5.66665 9.50008 6.23332 9.96675 6.69998C10.4334 7.16665 11.0001 7.39998 11.6667 7.39998ZM19.9001 24.6L19.7334 23.0333C19.5112 22.9222 19.3281 22.8275 19.1841 22.7493C19.0392 22.672 18.9001 22.5778 18.7667 22.4667L17.2667 23.1L16.1667 21.1667L17.4001 20.2333V19.1333L16.1667 18.2L17.2667 16.2333L18.7667 16.8667C18.9001 16.7555 19.0334 16.6555 19.1667 16.5667C19.3001 16.4778 19.4445 16.4 19.6001 16.3333L19.7334 15.8333L12.5334 10.8H13.5667L13.6334 10.1333L20.2334 14.7333H22.1001L22.2667 16.3C22.489 16.4111 22.6725 16.5058 22.8174 16.584C22.9614 16.6613 23.1001 16.7555 23.2334 16.8667L24.7334 16.2333L25.8334 18.1667L24.6001 19.1V20.2L25.8334 21.1667L24.7334 23.1L23.2334 22.4667L22.7667 22.8C22.6112 22.9111 22.4445 22.9889 22.2667 23.0333L22.1001 24.6H19.9001ZM21.0001 22.0667C21.6667 22.0667 22.2334 21.8333 22.7001 21.3667C23.1667 20.9 23.4001 20.3333 23.4001 19.6667C23.4001 19 23.1667 18.4333 22.7001 17.9667C22.2334 17.5 21.6667 17.2667 21.0001 17.2667C20.3334 17.2667 19.7667 17.5 19.3001 17.9667C18.8334 18.4333 18.6001 19 18.6001 19.6667C18.6001 20.3333 18.8334 20.9 19.3001 21.3667C19.7667 21.8333 20.3334 22.0667 21.0001 22.0667ZM3.90008 24.6L3.73342 23.0333C3.53342 22.9444 3.35564 22.8555 3.20008 22.7667C3.04453 22.6778 2.90008 22.5778 2.76675 22.4667L1.26675 23.1L0.166748 21.1667L1.40008 20.2333V19.1333L0.166748 18.1667L1.26675 16.2333L2.76675 16.8667C2.9223 16.7555 3.07786 16.6498 3.23342 16.5493C3.38897 16.4498 3.55564 16.3667 3.73342 16.3L3.90008 14.7333H6.10008L6.26675 16.3C6.48897 16.4111 6.67253 16.5058 6.81741 16.584C6.96141 16.6613 7.10008 16.7555 7.23342 16.8667L8.73342 16.2333L9.83342 18.1667L8.60008 19.1V19.584C8.60008 19.8169 8.57786 20.0111 8.53341 20.1667C8.6223 20.2333 8.6943 20.2942 8.74942 20.3493L8.93341 20.5333L16.2334 16.3333L15.1334 18.2L15.2334 18.2667L9.63342 21.5L8.73342 23.1L7.23342 22.4667C7.07786 22.5778 6.9223 22.6831 6.76675 22.7827C6.61119 22.8831 6.44453 22.9667 6.26675 23.0333L6.10008 24.6H3.90008ZM5.00008 22.0667C5.66675 22.0667 6.23342 21.8333 6.70008 21.3667C7.16675 20.9 7.40008 20.3333 7.40008 19.6667C7.40008 19 7.16675 18.4333 6.70008 17.9667C6.23342 17.5 5.66675 17.2667 5.00008 17.2667C4.33341 17.2667 3.76675 17.5 3.30008 17.9667C2.83341 18.4333 2.60008 19 2.60008 19.6667C2.60008 20.3333 2.83341 20.9 3.30008 21.3667C3.76675 21.8333 4.33341 22.0667 5.00008 22.0667Z" fill="black" fill-opacity="0.98"/>
</svg>
