<svg width="20" height="22" viewBox="0 0 20 22" fill="none" xmlns="http://www.w3.org/2000/svg">
<path d="M10 21.6667C8.8 21.6667 7.69422 21.372 6.68267 20.7827C5.672 20.1942 4.85556 19.3778 4.23333 18.3334H0.5V17H3.66667C3.46667 16.3556 3.36133 15.6942 3.35067 15.016C3.33911 14.3387 3.33333 13.6667 3.33333 13H0.5V11.6667H3.33333C3.33333 10.9778 3.328 10.2942 3.31733 9.61602C3.30578 8.93869 3.42222 8.28891 3.66667 7.66669H0.5V6.33336H4.23333C4.56667 5.75558 4.97778 5.23869 5.46667 4.78269C5.95556 4.32758 6.5 3.95558 7.1 3.66669L4.73333 1.26669L5.6 0.400024L8.43333 3.20002C8.94444 3.04447 9.46133 2.96669 9.984 2.96669C10.5058 2.96669 11.0333 3.04447 11.5667 3.20002L14.4333 0.400024L15.3333 1.26669L12.9333 3.66669C13.5333 3.95558 14.0724 4.32758 14.5507 4.78269C15.028 5.23869 15.4333 5.75558 15.7667 6.33336H19.5V7.66669H16.3333C16.5778 8.28891 16.6947 8.93869 16.684 9.61602C16.6724 10.2942 16.6667 10.9778 16.6667 11.6667H19.5V13H16.6667C16.6667 13.6667 16.6613 14.3387 16.6507 15.016C16.6391 15.6942 16.5333 16.3556 16.3333 17H19.5V18.3334H15.7667C15.1444 19.3778 14.328 20.1942 13.3173 20.7827C12.3058 21.372 11.2 21.6667 10 21.6667ZM10 20.3334C11.4667 20.3334 12.7222 19.8111 13.7667 18.7667C14.8111 17.7222 15.3333 16.4667 15.3333 15V9.66669C15.3333 8.20002 14.8111 6.94447 13.7667 5.90002C12.7222 4.85558 11.4667 4.33336 10 4.33336C8.53333 4.33336 7.27778 4.85558 6.23333 5.90002C5.18889 6.94447 4.66667 8.20002 4.66667 9.66669V15C4.66667 16.4667 5.18889 17.7222 6.23333 18.7667C7.27778 19.8111 8.53333 20.3334 10 20.3334ZM7.73333 15.6667H12.2667V14.3334H7.73333V15.6667ZM7.73333 10.3334H12.2667V9.00002H7.73333V10.3334Z" fill="black" fill-opacity="0.98"/>
</svg>
