<svg width="32" height="30" viewBox="0 0 32 30" fill="none" xmlns="http://www.w3.org/2000/svg">
<path d="M7.99996 30C7.06663 30 6.27774 29.6777 5.63329 29.0333C4.98885 28.3888 4.66663 27.6 4.66663 26.6666C4.66663 25.7333 4.98885 24.9444 5.63329 24.3C6.27774 23.6555 7.06663 23.3333 7.99996 23.3333C8.26663 23.3333 8.53907 23.372 8.81729 23.4493C9.09463 23.5275 9.35551 23.6333 9.59996 23.7666L13 19.5333C12.5111 19.0222 12.1777 18.4497 12 17.816C11.8222 17.1831 11.7888 16.5444 11.9 15.9L6.93329 14.2666C6.6444 14.8 6.23863 15.2222 5.71596 15.5333C5.19418 15.8444 4.62218 16 3.99996 16C3.06663 16 2.27774 15.6777 1.63329 15.0333C0.988848 14.3888 0.666626 13.6 0.666626 12.6666C0.666626 11.7333 0.988848 10.9444 1.63329 10.3C2.27774 9.65552 3.06663 9.33329 3.99996 9.33329C4.93329 9.33329 5.72218 9.65552 6.36663 10.3C7.01107 10.9444 7.33329 11.7333 7.33329 12.6666C7.33329 12.7777 7.32796 12.8666 7.31729 12.9333C7.30574 13 7.29996 13.0555 7.29996 13.1L12.2666 14.8333C12.5555 14.2777 12.972 13.7888 13.516 13.3666C14.0608 12.9444 14.6888 12.6777 15.4 12.5666V7.26663C14.5555 7.11107 13.8888 6.7164 13.4 6.08263C12.9111 5.44974 12.6666 4.75551 12.6666 3.99996C12.6666 3.06663 12.9888 2.27774 13.6333 1.63329C14.2777 0.988848 15.0666 0.666626 16 0.666626C16.9333 0.666626 17.7222 0.988848 18.3666 1.63329C19.0111 2.27774 19.3333 3.06663 19.3333 3.99996C19.3333 4.75551 19.0888 5.44974 18.6 6.08263C18.1111 6.7164 17.4444 7.11107 16.6 7.26663V12.5666C17.3111 12.6777 17.9333 12.9444 18.4666 13.3666C19 13.7888 19.4222 14.2777 19.7333 14.8333L24.7 13.1C24.6777 13.0333 24.6666 12.9724 24.6666 12.9173V12.6666C24.6666 11.7333 24.9888 10.9444 25.6333 10.3C26.2777 9.65552 27.0666 9.33329 28 9.33329C28.9333 9.33329 29.7222 9.65552 30.3666 10.3C31.0111 10.9444 31.3333 11.7333 31.3333 12.6666C31.3333 13.6 31.0111 14.3888 30.3666 15.0333C29.7222 15.6777 28.9333 16 28 16C27.3777 16 26.8053 15.8444 26.2826 15.5333C25.7608 15.2222 25.3555 14.8 25.0666 14.2666L20.1 15.9C20.2111 16.5444 20.1777 17.1831 20 17.816C19.8222 18.4497 19.4888 19.0111 19 19.5L22.4 23.7333C22.6444 23.6222 22.9053 23.5275 23.1826 23.4493C23.4608 23.372 23.7333 23.3333 24 23.3333C24.9333 23.3333 25.7222 23.6555 26.3666 24.3C27.0111 24.9444 27.3333 25.7333 27.3333 26.6666C27.3333 27.6 27.0111 28.3888 26.3666 29.0333C25.7222 29.6777 24.9333 30 24 30C23.0666 30 22.2777 29.6777 21.6333 29.0333C20.9888 28.3888 20.6666 27.6 20.6666 26.6666C20.6666 26.2666 20.7275 25.8835 20.8493 25.5173C20.972 25.1502 21.1888 24.8111 21.5 24.5L18.1 20.2333C17.5 20.6333 16.8053 20.8333 16.016 20.8333C15.2275 20.8333 14.5222 20.6333 13.9 20.2333L10.5 24.5C10.7888 24.8111 11 25.1502 11.1333 25.5173C11.2666 25.8835 11.3333 26.2666 11.3333 26.6666C11.3333 27.6 11.0111 28.3888 10.3666 29.0333C9.72218 29.6777 8.93329 30 7.99996 30ZM3.99996 14.6666C4.55551 14.6666 5.02751 14.472 5.41596 14.0826C5.80529 13.6942 5.99996 13.2222 5.99996 12.6666C5.99996 12.1111 5.80529 11.6391 5.41596 11.2506C5.02751 10.8613 4.55551 10.6666 3.99996 10.6666C3.4444 10.6666 2.9724 10.8613 2.58396 11.2506C2.19463 11.6391 1.99996 12.1111 1.99996 12.6666C1.99996 13.2222 2.19463 13.6942 2.58396 14.0826C2.9724 14.472 3.4444 14.6666 3.99996 14.6666ZM7.99996 28.6666C8.55552 28.6666 9.02751 28.472 9.41596 28.0826C9.80529 27.6942 9.99996 27.2222 9.99996 26.6666C9.99996 26.1111 9.80529 25.6391 9.41596 25.2506C9.02751 24.8613 8.55552 24.6666 7.99996 24.6666C7.4444 24.6666 6.9724 24.8613 6.58396 25.2506C6.19463 25.6391 5.99996 26.1111 5.99996 26.6666C5.99996 27.2222 6.19463 27.6942 6.58396 28.0826C6.9724 28.472 7.4444 28.6666 7.99996 28.6666ZM16 5.99996C16.5555 5.99996 17.0275 5.80529 17.416 5.41596C17.8053 5.02751 18 4.55551 18 3.99996C18 3.4444 17.8053 2.9724 17.416 2.58396C17.0275 2.19463 16.5555 1.99996 16 1.99996C15.4444 1.99996 14.9724 2.19463 14.584 2.58396C14.1946 2.9724 14 3.4444 14 3.99996C14 4.55551 14.1946 5.02751 14.584 5.41596C14.9724 5.80529 15.4444 5.99996 16 5.99996ZM16 19.5C16.7777 19.5 17.4444 19.2222 18 18.6666C18.5555 18.1111 18.8333 17.4444 18.8333 16.6666C18.8333 15.8888 18.5555 15.2222 18 14.6666C17.4444 14.1111 16.7777 13.8333 16 13.8333C15.2222 13.8333 14.5555 14.1111 14 14.6666C13.4444 15.2222 13.1666 15.8888 13.1666 16.6666C13.1666 17.4444 13.4444 18.1111 14 18.6666C14.5555 19.2222 15.2222 19.5 16 19.5ZM24 28.6666C24.5555 28.6666 25.0275 28.472 25.416 28.0826C25.8053 27.6942 26 27.2222 26 26.6666C26 26.1111 25.8053 25.6391 25.416 25.2506C25.0275 24.8613 24.5555 24.6666 24 24.6666C23.4444 24.6666 22.9724 24.8613 22.584 25.2506C22.1946 25.6391 22 26.1111 22 26.6666C22 27.2222 22.1946 27.6942 22.584 28.0826C22.9724 28.472 23.4444 28.6666 24 28.6666ZM28 14.6666C28.5555 14.6666 29.0275 14.472 29.416 14.0826C29.8053 13.6942 30 13.2222 30 12.6666C30 12.1111 29.8053 11.6391 29.416 11.2506C29.0275 10.8613 28.5555 10.6666 28 10.6666C27.4444 10.6666 26.9724 10.8613 26.584 11.2506C26.1946 11.6391 26 12.1111 26 12.6666C26 13.2222 26.1946 13.6942 26.584 14.0826C26.9724 14.472 27.4444 14.6666 28 14.6666Z" fill="black" fill-opacity="0.98"/>
</svg>
