<svg width="24" height="22" viewBox="0 0 24 22" fill="none" xmlns="http://www.w3.org/2000/svg">
<path d="M6.36667 21.6667V19.8667L8.56667 17.6667H2.16667C1.54444 17.6667 1.028 17.4613 0.617333 17.0507C0.205778 16.6391 0 16.1222 0 15.5V2.49999C0 1.87777 0.205778 1.36133 0.617333 0.950661C1.028 0.539106 1.54444 0.333328 2.16667 0.333328H21.8333C22.4556 0.333328 22.9724 0.539106 23.384 0.950661C23.7947 1.36133 24 1.87777 24 2.49999V15.5C24 16.1222 23.7947 16.6391 23.384 17.0507C22.9724 17.4613 22.4556 17.6667 21.8333 17.6667H15.4333L17.6333 19.8667V21.6667H6.36667ZM2.16667 16.3333H21.8333C22.0556 16.3333 22.2498 16.2498 22.416 16.0827C22.5831 15.9164 22.6667 15.7222 22.6667 15.5V2.49999C22.6667 2.27777 22.5831 2.08355 22.416 1.91733C22.2498 1.75022 22.0556 1.66666 21.8333 1.66666H2.16667C1.94444 1.66666 1.75022 1.75022 1.584 1.91733C1.41689 2.08355 1.33333 2.27777 1.33333 2.49999V15.5C1.33333 15.7222 1.41689 15.9164 1.584 16.0827C1.75022 16.2498 1.94444 16.3333 2.16667 16.3333Z" fill="black" fill-opacity="0.98"/>
</svg>
