<svg width="20" height="24" viewBox="0 0 20 24" fill="none" xmlns="http://www.w3.org/2000/svg">
<path d="M8.60008 15.8L15.2001 9.19998L14.2667 8.23331L8.60008 13.9L5.73342 11.0666L4.80008 12L8.60008 15.8ZM10.0001 23.9333C7.31119 23.1555 5.08319 21.5386 3.31608 19.0826C1.54986 16.6275 0.666748 13.8666 0.666748 10.8V3.59998L10.0001 0.0999756L19.3334 3.59998V10.8C19.3334 13.8666 18.4499 16.6275 16.6827 19.0826C14.9165 21.5386 12.689 23.1555 10.0001 23.9333ZM10.0001 22.5333C12.3112 21.8 14.2223 20.3333 15.7334 18.1333C17.2445 15.9333 18.0001 13.4889 18.0001 10.8V4.49998L10.0001 1.53331L2.00008 4.49998V10.8C2.00008 13.4889 2.75564 15.9333 4.26675 18.1333C5.77786 20.3333 7.68897 21.8 10.0001 22.5333Z" fill="black" fill-opacity="0.98"/>
</svg>
