<svg width="16" height="28" viewBox="0 0 16 28" fill="none" xmlns="http://www.w3.org/2000/svg">
<path d="M2.16667 27.3333C1.54444 27.3333 1.028 27.128 0.617333 26.7173C0.205778 26.3058 0 25.7889 0 25.1667V2.83334C0 2.21112 0.205778 1.69423 0.617333 1.28267C1.028 0.872005 1.54444 0.666672 2.16667 0.666672H13.8333C14.4556 0.666672 14.9724 0.872005 15.384 1.28267C15.7947 1.69423 16 2.21112 16 2.83334V25.1667C16 25.7889 15.7947 26.3058 15.384 26.7173C14.9724 27.128 14.4556 27.3333 13.8333 27.3333H2.16667ZM1.33333 21.4V25.1667C1.33333 25.3889 1.41689 25.5831 1.584 25.7493C1.75022 25.9165 1.94444 26 2.16667 26H13.8333C14.0556 26 14.2498 25.9165 14.416 25.7493C14.5831 25.5831 14.6667 25.3889 14.6667 25.1667V21.4H1.33333ZM8 24.7333C8.26667 24.7333 8.50578 24.6276 8.71733 24.416C8.928 24.2053 9.03333 23.9667 9.03333 23.7C9.03333 23.4111 8.928 23.1667 8.71733 22.9667C8.50578 22.7667 8.26667 22.6667 8 22.6667C7.73333 22.6667 7.49467 22.7667 7.284 22.9667C7.07245 23.1667 6.96667 23.4111 6.96667 23.7C6.96667 23.9667 7.07245 24.2053 7.284 24.416C7.49467 24.6276 7.73333 24.7333 8 24.7333ZM1.33333 20.0667H14.6667V5.33334H1.33333V20.0667ZM1.33333 4.00001H14.6667V2.83334C14.6667 2.61112 14.5831 2.41689 14.416 2.25067C14.2498 2.08356 14.0556 2.00001 13.8333 2.00001H2.16667C1.94444 2.00001 1.75022 2.08356 1.584 2.25067C1.41689 2.41689 1.33333 2.61112 1.33333 2.83334V4.00001ZM1.33333 21.4V26V25.1667V21.4Z" fill="black" fill-opacity="0.98"/>
</svg>
