<svg width="24" height="22" viewBox="0 0 24 22" fill="none" xmlns="http://www.w3.org/2000/svg">
<path d="M5.33333 13.1667C5.55556 13.1667 5.75022 13.0836 5.91733 12.9174C6.08356 12.7503 6.16667 12.5556 6.16667 12.3334C6.16667 12.1112 6.08356 11.9165 5.91733 11.7494C5.75022 11.5832 5.55556 11.5 5.33333 11.5C5.11111 11.5 4.91644 11.5832 4.74933 11.7494C4.58311 11.9165 4.5 12.1112 4.5 12.3334C4.5 12.5556 4.58311 12.7503 4.74933 12.9174C4.91644 13.0836 5.11111 13.1667 5.33333 13.1667ZM5.33333 7.83337C5.55556 7.83337 5.75022 7.75026 5.91733 7.58404C6.08356 7.41693 6.16667 7.22226 6.16667 7.00004C6.16667 6.77782 6.08356 6.58315 5.91733 6.41604C5.75022 6.24982 5.55556 6.16671 5.33333 6.16671C5.11111 6.16671 4.91644 6.24982 4.74933 6.41604C4.58311 6.58315 4.5 6.77782 4.5 7.00004C4.5 7.22226 4.58311 7.41693 4.74933 7.58404C4.91644 7.75026 5.11111 7.83337 5.33333 7.83337ZM8.16667 13H19.3333V11.6667H8.16667V13ZM8.16667 7.66671H19.3333V6.33337H8.16667V7.66671ZM8 21.6667V19H2.16667C1.54444 19 1.028 18.7947 0.617333 18.384C0.205778 17.9725 0 17.4556 0 16.8334V2.50004C0 1.87782 0.205778 1.36137 0.617333 0.950707C1.028 0.539152 1.54444 0.333374 2.16667 0.333374H21.8333C22.4556 0.333374 22.9724 0.539152 23.384 0.950707C23.7947 1.36137 24 1.87782 24 2.50004V16.8334C24 17.4556 23.7947 17.9725 23.384 18.384C22.9724 18.7947 22.4556 19 21.8333 19H16V21.6667H8ZM2.16667 17.6667H21.8333C22.0556 17.6667 22.2498 17.5832 22.416 17.416C22.5831 17.2498 22.6667 17.0556 22.6667 16.8334V2.50004C22.6667 2.27782 22.5831 2.0836 22.416 1.91737C22.2498 1.75026 22.0556 1.66671 21.8333 1.66671H2.16667C1.94444 1.66671 1.75022 1.75026 1.584 1.91737C1.41689 2.0836 1.33333 2.27782 1.33333 2.50004V16.8334C1.33333 17.0556 1.41689 17.2498 1.584 17.416C1.75022 17.5832 1.94444 17.6667 2.16667 17.6667Z" fill="black" fill-opacity="0.98"/>
</svg>
