<svg width="28" height="28" viewBox="0 0 28 28" fill="none" xmlns="http://www.w3.org/2000/svg">
<path d="M12.9333 23.5333L6.39996 19.7333C6.06663 19.5555 5.80574 19.3 5.61729 18.9666C5.42796 18.6333 5.33329 18.2666 5.33329 17.8666V10.3333C5.33329 9.93329 5.42796 9.56663 5.61729 9.23329C5.80574 8.89996 6.06663 8.63329 6.39996 8.43329L12.9333 4.66663C13.2666 4.46663 13.6222 4.36663 14 4.36663C14.3777 4.36663 14.7333 4.46663 15.0666 4.66663L21.6 8.43329C21.9333 8.63329 22.1946 8.89996 22.384 9.23329C22.5724 9.56663 22.6666 9.93329 22.6666 10.3333V17.8666C22.6666 18.2666 22.5724 18.6333 22.384 18.9666C22.1946 19.3 21.9333 19.5555 21.6 19.7333L15.0666 23.5333C14.7333 23.7333 14.3777 23.8333 14 23.8333C13.6222 23.8333 13.2666 23.7333 12.9333 23.5333ZM13.3333 22.2333V14.4666L6.66663 10.6666V17.8666C6.66663 18.0222 6.69996 18.1555 6.76663 18.2666C6.83329 18.3777 6.93329 18.4777 7.06663 18.5666L13.3333 22.2333ZM14.6666 22.2333L20.9333 18.5666C21.0666 18.4777 21.1666 18.3777 21.2333 18.2666C21.3 18.1555 21.3333 18.0222 21.3333 17.8666V10.6666L14.6666 14.4666V22.2333ZM0.666626 5.99996V3.86663C0.666626 2.95552 0.977737 2.19463 1.59996 1.58396C2.22218 0.972404 2.96663 0.666626 3.83329 0.666626H5.99996V1.99996H3.83329C3.32218 1.99996 2.88885 2.17774 2.53329 2.53329C2.17774 2.88885 1.99996 3.32218 1.99996 3.83329V5.99996H0.666626ZM3.86663 27.3333C2.95552 27.3333 2.19463 27.0222 1.58396 26.4C0.972404 25.7777 0.666626 25.0333 0.666626 24.1666V22H1.99996V24.1666C1.99996 24.6777 2.17774 25.1111 2.53329 25.4666C2.88885 25.8222 3.32218 26 3.83329 26H5.99996V27.3333H3.86663ZM22 27.0666V25.7333H24.1666C24.6777 25.7333 25.1111 25.5555 25.4666 25.2C25.8222 24.8444 26 24.4111 26 23.9V21.7333H27.3333V23.9C27.3333 24.7888 27.0222 25.5391 26.4 26.1506C25.7777 26.7613 25.0333 27.0666 24.1666 27.0666H22ZM26 5.99996V3.83329C26 3.32218 25.8222 2.88885 25.4666 2.53329C25.1111 2.17774 24.6777 1.99996 24.1666 1.99996H22V0.666626H24.1333C25.0444 0.666626 25.8053 0.977737 26.416 1.59996C27.0275 2.22218 27.3333 2.96663 27.3333 3.83329V5.99996H26ZM14 13.3L20.6666 9.46663L14.4 5.86663C14.2666 5.77774 14.1333 5.73329 14 5.73329C13.8666 5.73329 13.7333 5.77774 13.6 5.86663L7.33329 9.46663L14 13.3Z" fill="black" fill-opacity="0.98"/>
</svg>
