<svg width="26" height="25" viewBox="0 0 26 25" fill="none" xmlns="http://www.w3.org/2000/svg">
<path d="M10.5667 0.0666504H12.7667L12.9333 1.63332C13.1556 1.74443 13.3391 1.83865 13.484 1.91598C13.628 1.99421 13.7667 2.08887 13.9 2.19998L15.4 1.56665L16.5 3.49998L15.2667 4.43332V5.53332L16.5 6.49998L15.4 8.43332L13.9 7.79998C13.7445 7.9111 13.5889 8.01643 13.4333 8.11598C13.2778 8.21643 13.1111 8.29998 12.9333 8.36665L12.7667 9.93332H10.5667L10.4 8.36665C10.2445 8.29998 10.0836 8.22221 9.91734 8.13332C9.75023 8.04443 9.61112 7.94443 9.50001 7.83332L9.26667 8.03332V15.3333L9.13334 15.1333L8.06667 15.6V8.36665L6.86667 6.49998L8.06667 5.56665V4.46665L6.83334 3.49998L7.93334 1.56665L9.43334 2.19998C9.58889 2.08887 9.74445 1.98309 9.90001 1.88265C10.0556 1.78309 10.2222 1.69998 10.4 1.63332L10.5667 0.0666504ZM11.6667 7.39998C12.3333 7.39998 12.9 7.16665 13.3667 6.69998C13.8333 6.23332 14.0667 5.66665 14.0667 4.99998C14.0667 4.33332 13.8333 3.76665 13.3667 3.29998C12.9 2.83332 12.3333 2.59998 11.6667 2.59998C11 2.59998 10.4333 2.83332 9.96667 3.29998C9.50001 3.76665 9.26667 4.33332 9.26667 4.99998C9.26667 5.66665 9.50001 6.23332 9.96667 6.69998C10.4333 7.16665 11 7.39998 11.6667 7.39998ZM19.9 24.6L19.7333 23.0333C19.5111 22.9222 19.328 22.8275 19.184 22.7493C19.0391 22.672 18.9 22.5778 18.7667 22.4667L17.2667 23.1L16.1667 21.1667L17.4 20.2333V19.1333L16.1667 18.2L17.2667 16.2333L18.7667 16.8667C18.9 16.7555 19.0333 16.6555 19.1667 16.5667C19.3 16.4778 19.4445 16.4 19.6 16.3333L19.7333 15.8333L12.5333 10.8H13.5667L13.6333 10.1333L20.2333 14.7333H22.1L22.2667 16.3C22.4889 16.4111 22.6725 16.5058 22.8173 16.584C22.9613 16.6613 23.1 16.7555 23.2333 16.8667L24.7333 16.2333L25.8333 18.1667L24.6 19.1V20.2L25.8333 21.1667L24.7333 23.1L23.2333 22.4667L22.7667 22.8C22.6111 22.9111 22.4445 22.9889 22.2667 23.0333L22.1 24.6H19.9ZM21 22.0667C21.6667 22.0667 22.2333 21.8333 22.7 21.3667C23.1667 20.9 23.4 20.3333 23.4 19.6667C23.4 19 23.1667 18.4333 22.7 17.9667C22.2333 17.5 21.6667 17.2667 21 17.2667C20.3333 17.2667 19.7667 17.5 19.3 17.9667C18.8333 18.4333 18.6 19 18.6 19.6667C18.6 20.3333 18.8333 20.9 19.3 21.3667C19.7667 21.8333 20.3333 22.0667 21 22.0667ZM3.90001 24.6L3.73334 23.0333C3.53334 22.9444 3.35556 22.8555 3.20001 22.7667C3.04445 22.6778 2.9 22.5778 2.76667 22.4667L1.26667 23.1L0.166672 21.1667L1.40001 20.2333V19.1333L0.166672 18.1667L1.26667 16.2333L2.76667 16.8667C2.92223 16.7555 3.07778 16.6498 3.23334 16.5493C3.38889 16.4498 3.55556 16.3667 3.73334 16.3L3.90001 14.7333H6.10001L6.26667 16.3C6.48889 16.4111 6.67245 16.5058 6.81734 16.584C6.96134 16.6613 7.10001 16.7555 7.23334 16.8667L8.73334 16.2333L9.83334 18.1667L8.60001 19.1V19.584C8.60001 19.8169 8.57778 20.0111 8.53334 20.1667C8.62223 20.2333 8.69423 20.2942 8.74934 20.3493L8.93334 20.5333L16.2333 16.3333L15.1333 18.2L15.2333 18.2667L9.63334 21.5L8.73334 23.1L7.23334 22.4667C7.07778 22.5778 6.92223 22.6831 6.76667 22.7827C6.61112 22.8831 6.44445 22.9667 6.26667 23.0333L6.10001 24.6H3.90001ZM5.00001 22.0667C5.66667 22.0667 6.23334 21.8333 6.70001 21.3667C7.16667 20.9 7.40001 20.3333 7.40001 19.6667C7.40001 19 7.16667 18.4333 6.70001 17.9667C6.23334 17.5 5.66667 17.2667 5.00001 17.2667C4.33334 17.2667 3.76667 17.5 3.30001 17.9667C2.83334 18.4333 2.6 19 2.6 19.6667C2.6 20.3333 2.83334 20.9 3.30001 21.3667C3.76667 21.8333 4.33334 22.0667 5.00001 22.0667Z" fill="black" fill-opacity="0.98"/>
</svg>
