<svg width="30" height="21" viewBox="0 0 30 21" fill="none" xmlns="http://www.w3.org/2000/svg">
<path d="M2.03331 20.7C1.56665 20.7 1.16665 20.5334 0.833313 20.2C0.49998 19.8667 0.333313 19.4667 0.333313 19H5.16665C4.54442 19 4.02798 18.7947 3.61731 18.384C3.20576 17.9725 2.99998 17.4556 2.99998 16.8334V2.50004C2.99998 1.87782 3.20576 1.36137 3.61731 0.950707C4.02798 0.539152 4.54442 0.333374 5.16665 0.333374H24.8333C25.4555 0.333374 25.9724 0.539152 26.384 0.950707C26.7946 1.36137 27 1.87782 27 2.50004V16.8334C27 17.4556 26.7946 17.9725 26.384 18.384C25.9724 18.7947 25.4555 19 24.8333 19H29.6666C29.6666 19.4667 29.5 19.8667 29.1666 20.2C28.8333 20.5334 28.4333 20.7 27.9666 20.7H2.03331ZM15 20.0334C15.2222 20.0334 15.4169 19.9498 15.584 19.7827C15.7502 19.6165 15.8333 19.4223 15.8333 19.2C15.8333 18.9778 15.7502 18.7889 15.584 18.6334C15.4169 18.4778 15.2222 18.4 15 18.4C14.7778 18.4 14.5831 18.4778 14.416 18.6334C14.2498 18.7889 14.1666 18.9778 14.1666 19.2C14.1666 19.4223 14.2498 19.6165 14.416 19.7827C14.5831 19.9498 14.7778 20.0334 15 20.0334ZM5.16665 17.6667H24.8333C25.0555 17.6667 25.2498 17.5832 25.416 17.416C25.5831 17.2498 25.6666 17.0556 25.6666 16.8334V2.50004C25.6666 2.27782 25.5831 2.0836 25.416 1.91737C25.2498 1.75026 25.0555 1.66671 24.8333 1.66671H5.16665C4.94442 1.66671 4.7502 1.75026 4.58398 1.91737C4.41687 2.0836 4.33331 2.27782 4.33331 2.50004V16.8334C4.33331 17.0556 4.41687 17.2498 4.58398 17.416C4.7502 17.5832 4.94442 17.6667 5.16665 17.6667Z" fill="black" fill-opacity="0.98"/>
</svg>
