<svg width="24" height="22" viewBox="0 0 24 22" fill="none" xmlns="http://www.w3.org/2000/svg">
<path d="M5.33333 13.1667C5.55556 13.1667 5.75022 13.0835 5.91733 12.9173C6.08356 12.7502 6.16667 12.5555 6.16667 12.3333C6.16667 12.1111 6.08356 11.9164 5.91733 11.7493C5.75022 11.5831 5.55556 11.5 5.33333 11.5C5.11111 11.5 4.91644 11.5831 4.74933 11.7493C4.58311 11.9164 4.5 12.1111 4.5 12.3333C4.5 12.5555 4.58311 12.7502 4.74933 12.9173C4.91644 13.0835 5.11111 13.1667 5.33333 13.1667ZM5.33333 7.83333C5.55556 7.83333 5.75022 7.75022 5.91733 7.58399C6.08356 7.41688 6.16667 7.22222 6.16667 6.99999C6.16667 6.77777 6.08356 6.58311 5.91733 6.41599C5.75022 6.24977 5.55556 6.16666 5.33333 6.16666C5.11111 6.16666 4.91644 6.24977 4.74933 6.41599C4.58311 6.58311 4.5 6.77777 4.5 6.99999C4.5 7.22222 4.58311 7.41688 4.74933 7.58399C4.91644 7.75022 5.11111 7.83333 5.33333 7.83333ZM8.16667 13H19.3333V11.6667H8.16667V13ZM8.16667 7.66666H19.3333V6.33333H8.16667V7.66666ZM8 21.6667V19H2.16667C1.54444 19 1.028 18.7947 0.617333 18.384C0.205778 17.9724 0 17.4555 0 16.8333V2.49999C0 1.87777 0.205778 1.36133 0.617333 0.950661C1.028 0.539106 1.54444 0.333328 2.16667 0.333328H21.8333C22.4556 0.333328 22.9724 0.539106 23.384 0.950661C23.7947 1.36133 24 1.87777 24 2.49999V16.8333C24 17.4555 23.7947 17.9724 23.384 18.384C22.9724 18.7947 22.4556 19 21.8333 19H16V21.6667H8ZM2.16667 17.6667H21.8333C22.0556 17.6667 22.2498 17.5831 22.416 17.416C22.5831 17.2498 22.6667 17.0555 22.6667 16.8333V2.49999C22.6667 2.27777 22.5831 2.08355 22.416 1.91733C22.2498 1.75022 22.0556 1.66666 21.8333 1.66666H2.16667C1.94444 1.66666 1.75022 1.75022 1.584 1.91733C1.41689 2.08355 1.33333 2.27777 1.33333 2.49999V16.8333C1.33333 17.0555 1.41689 17.2498 1.584 17.416C1.75022 17.5831 1.94444 17.6667 2.16667 17.6667Z" fill="black" fill-opacity="0.98"/>
</svg>
