<svg width="32" height="32" viewBox="0 0 32 32" fill="none" xmlns="http://www.w3.org/2000/svg">
<mask id="mask0_189_1904" style="mask-type:alpha" maskUnits="userSpaceOnUse" x="0" y="0" width="32" height="32">
<rect width="32" height="32" fill="#D9D9D9"/>
</mask>
<g mask="url(#mask0_189_1904)">
<path d="M3.0335 25.7C2.56683 25.7 2.16683 25.5334 1.8335 25.2C1.50016 24.8667 1.3335 24.4667 1.3335 24H6.16683C5.54461 24 5.02816 23.7947 4.6175 23.384C4.20594 22.9725 4.00016 22.4556 4.00016 21.8334V7.50004C4.00016 6.87782 4.20594 6.36137 4.6175 5.95071C5.02816 5.53915 5.54461 5.33337 6.16683 5.33337H25.8335C26.4557 5.33337 26.9726 5.53915 27.3842 5.95071C27.7948 6.36137 28.0002 6.87782 28.0002 7.50004V21.8334C28.0002 22.4556 27.7948 22.9725 27.3842 23.384C26.9726 23.7947 26.4557 24 25.8335 24H30.6668C30.6668 24.4667 30.5002 24.8667 30.1668 25.2C29.8335 25.5334 29.4335 25.7 28.9668 25.7H3.0335ZM16.0002 25.0334C16.2224 25.0334 16.4171 24.9498 16.5842 24.7827C16.7504 24.6165 16.8335 24.4223 16.8335 24.2C16.8335 23.9778 16.7504 23.7889 16.5842 23.6334C16.4171 23.4778 16.2224 23.4 16.0002 23.4C15.7779 23.4 15.5833 23.4778 15.4162 23.6334C15.2499 23.7889 15.1668 23.9778 15.1668 24.2C15.1668 24.4223 15.2499 24.6165 15.4162 24.7827C15.5833 24.9498 15.7779 25.0334 16.0002 25.0334ZM6.16683 22.6667H25.8335C26.0557 22.6667 26.2499 22.5832 26.4162 22.416C26.5833 22.2498 26.6668 22.0556 26.6668 21.8334V7.50004C26.6668 7.27782 26.5833 7.0836 26.4162 6.91737C26.2499 6.75026 26.0557 6.66671 25.8335 6.66671H6.16683C5.94461 6.66671 5.75038 6.75026 5.58416 6.91737C5.41705 7.0836 5.3335 7.27782 5.3335 7.50004V21.8334C5.3335 22.0556 5.41705 22.2498 5.58416 22.416C5.75038 22.5832 5.94461 22.6667 6.16683 22.6667Z" fill="white" fill-opacity="0.98"/>
</g>
</svg>
