<svg width="92" height="92" viewBox="0 0 92 92" fill="none" xmlns="http://www.w3.org/2000/svg">
<circle cx="46" cy="46" r="46" fill="#F9F9F9"/>
<mask id="mask0_187_575" style="mask-type:alpha" maskUnits="userSpaceOnUse" x="30" y="30" width="32" height="32">
<rect x="30" y="30" width="32" height="32" fill="#D9D9D9"/>
</mask>
<g mask="url(#mask0_187_575)">
<path d="M39.3333 48.1667C39.5556 48.1667 39.7502 48.0836 39.9173 47.9174C40.0836 47.7503 40.1667 47.5556 40.1667 47.3334C40.1667 47.1112 40.0836 46.9165 39.9173 46.7494C39.7502 46.5832 39.5556 46.5 39.3333 46.5C39.1111 46.5 38.9164 46.5832 38.7493 46.7494C38.5831 46.9165 38.5 47.1112 38.5 47.3334C38.5 47.5556 38.5831 47.7503 38.7493 47.9174C38.9164 48.0836 39.1111 48.1667 39.3333 48.1667ZM39.3333 42.8334C39.5556 42.8334 39.7502 42.7503 39.9173 42.584C40.0836 42.4169 40.1667 42.2223 40.1667 42C40.1667 41.7778 40.0836 41.5832 39.9173 41.416C39.7502 41.2498 39.5556 41.1667 39.3333 41.1667C39.1111 41.1667 38.9164 41.2498 38.7493 41.416C38.5831 41.5832 38.5 41.7778 38.5 42C38.5 42.2223 38.5831 42.4169 38.7493 42.584C38.9164 42.7503 39.1111 42.8334 39.3333 42.8334ZM42.1667 48H53.3333V46.6667H42.1667V48ZM42.1667 42.6667H53.3333V41.3334H42.1667V42.6667ZM42 56.6667V54H36.1667C35.5444 54 35.028 53.7947 34.6173 53.384C34.2058 52.9725 34 52.4556 34 51.8334V37.5C34 36.8778 34.2058 36.3614 34.6173 35.9507C35.028 35.5392 35.5444 35.3334 36.1667 35.3334H55.8333C56.4556 35.3334 56.9724 35.5392 57.384 35.9507C57.7947 36.3614 58 36.8778 58 37.5V51.8334C58 52.4556 57.7947 52.9725 57.384 53.384C56.9724 53.7947 56.4556 54 55.8333 54H50V56.6667H42ZM36.1667 52.6667H55.8333C56.0556 52.6667 56.2498 52.5832 56.416 52.416C56.5831 52.2498 56.6667 52.0556 56.6667 51.8334V37.5C56.6667 37.2778 56.5831 37.0836 56.416 36.9174C56.2498 36.7503 56.0556 36.6667 55.8333 36.6667H36.1667C35.9444 36.6667 35.7502 36.7503 35.584 36.9174C35.4169 37.0836 35.3333 37.2778 35.3333 37.5V51.8334C35.3333 52.0556 35.4169 52.2498 35.584 52.416C35.7502 52.5832 35.9444 52.6667 36.1667 52.6667Z" fill="black" fill-opacity="0.98"/>
</g>
</svg>
