<svg width="92" height="92" viewBox="0 0 92 92" fill="none" xmlns="http://www.w3.org/2000/svg">
<circle cx="46" cy="46" r="46" fill="#F9F9F9"/>
<mask id="mask0_187_581" style="mask-type:alpha" maskUnits="userSpaceOnUse" x="30" y="30" width="32" height="32">
<rect x="30" y="30" width="32" height="32" fill="#D9D9D9"/>
</mask>
<g mask="url(#mask0_187_581)">
<path d="M38 60C37.0667 60 36.2778 59.6778 35.6334 59.0334C34.9889 58.3889 34.6667 57.6 34.6667 56.6667C34.6667 55.7334 34.9889 54.9445 35.6334 54.3C36.2778 53.6556 37.0667 53.3334 38 53.3334C38.2667 53.3334 38.5391 53.372 38.8174 53.4494C39.0947 53.5276 39.3556 53.6334 39.6 53.7667L43 49.5334C42.5111 49.0222 42.1778 48.4498 42 47.816C41.8222 47.1831 41.7889 46.5445 41.9 45.9L36.9334 44.2667C36.6445 44.8 36.2387 45.2222 35.716 45.5334C35.1942 45.8445 34.6222 46 34 46C33.0667 46 32.2778 45.6778 31.6334 45.0334C30.9889 44.3889 30.6667 43.6 30.6667 42.6667C30.6667 41.7334 30.9889 40.9445 31.6334 40.3C32.2778 39.6556 33.0667 39.3334 34 39.3334C34.9334 39.3334 35.7222 39.6556 36.3667 40.3C37.0111 40.9445 37.3334 41.7334 37.3334 42.6667C37.3334 42.7778 37.328 42.8667 37.3174 42.9334C37.3058 43 37.3 43.0556 37.3 43.1L42.2667 44.8334C42.5556 44.2778 42.972 43.7889 43.516 43.3667C44.0609 42.9445 44.6889 42.6778 45.4 42.5667V37.2667C44.5556 37.1111 43.8889 36.7165 43.4 36.0827C42.9111 35.4498 42.6667 34.7556 42.6667 34C42.6667 33.0667 42.9889 32.2778 43.6334 31.6334C44.2778 30.9889 45.0667 30.6667 46 30.6667C46.9334 30.6667 47.7222 30.9889 48.3667 31.6334C49.0111 32.2778 49.3334 33.0667 49.3334 34C49.3334 34.7556 49.0889 35.4498 48.6 36.0827C48.1111 36.7165 47.4445 37.1111 46.6 37.2667V42.5667C47.3111 42.6778 47.9334 42.9445 48.4667 43.3667C49 43.7889 49.4222 44.2778 49.7334 44.8334L54.7 43.1C54.6778 43.0334 54.6667 42.9725 54.6667 42.9174V42.6667C54.6667 41.7334 54.9889 40.9445 55.6334 40.3C56.2778 39.6556 57.0667 39.3334 58 39.3334C58.9334 39.3334 59.7222 39.6556 60.3667 40.3C61.0111 40.9445 61.3334 41.7334 61.3334 42.6667C61.3334 43.6 61.0111 44.3889 60.3667 45.0334C59.7222 45.6778 58.9334 46 58 46C57.3778 46 56.8054 45.8445 56.2827 45.5334C55.7609 45.2222 55.3556 44.8 55.0667 44.2667L50.1 45.9C50.2111 46.5445 50.1778 47.1831 50 47.816C49.8222 48.4498 49.4889 49.0111 49 49.5L52.4 53.7334C52.6445 53.6222 52.9054 53.5276 53.1827 53.4494C53.4609 53.372 53.7334 53.3334 54 53.3334C54.9334 53.3334 55.7222 53.6556 56.3667 54.3C57.0111 54.9445 57.3334 55.7334 57.3334 56.6667C57.3334 57.6 57.0111 58.3889 56.3667 59.0334C55.7222 59.6778 54.9334 60 54 60C53.0667 60 52.2778 59.6778 51.6334 59.0334C50.9889 58.3889 50.6667 57.6 50.6667 56.6667C50.6667 56.2667 50.7276 55.8836 50.8494 55.5174C50.972 55.1502 51.1889 54.8111 51.5 54.5L48.1 50.2334C47.5 50.6334 46.8054 50.8334 46.016 50.8334C45.2276 50.8334 44.5222 50.6334 43.9 50.2334L40.5 54.5C40.7889 54.8111 41 55.1502 41.1334 55.5174C41.2667 55.8836 41.3334 56.2667 41.3334 56.6667C41.3334 57.6 41.0111 58.3889 40.3667 59.0334C39.7222 59.6778 38.9334 60 38 60ZM34 44.6667C34.5556 44.6667 35.0276 44.472 35.416 44.0827C35.8054 43.6942 36 43.2222 36 42.6667C36 42.1111 35.8054 41.6391 35.416 41.2507C35.0276 40.8614 34.5556 40.6667 34 40.6667C33.4445 40.6667 32.9725 40.8614 32.584 41.2507C32.1947 41.6391 32 42.1111 32 42.6667C32 43.2222 32.1947 43.6942 32.584 44.0827C32.9725 44.472 33.4445 44.6667 34 44.6667ZM38 58.6667C38.5556 58.6667 39.0276 58.472 39.416 58.0827C39.8054 57.6942 40 57.2222 40 56.6667C40 56.1111 39.8054 55.6391 39.416 55.2507C39.0276 54.8614 38.5556 54.6667 38 54.6667C37.4445 54.6667 36.9725 54.8614 36.584 55.2507C36.1947 55.6391 36 56.1111 36 56.6667C36 57.2222 36.1947 57.6942 36.584 58.0827C36.9725 58.472 37.4445 58.6667 38 58.6667ZM46 36C46.5556 36 47.0276 35.8054 47.416 35.416C47.8054 35.0276 48 34.5556 48 34C48 33.4445 47.8054 32.9725 47.416 32.584C47.0276 32.1947 46.5556 32 46 32C45.4445 32 44.9725 32.1947 44.584 32.584C44.1947 32.9725 44 33.4445 44 34C44 34.5556 44.1947 35.0276 44.584 35.416C44.9725 35.8054 45.4445 36 46 36ZM46 49.5C46.7778 49.5 47.4445 49.2222 48 48.6667C48.5556 48.1111 48.8334 47.4445 48.8334 46.6667C48.8334 45.8889 48.5556 45.2222 48 44.6667C47.4445 44.1111 46.7778 43.8334 46 43.8334C45.2222 43.8334 44.5556 44.1111 44 44.6667C43.4445 45.2222 43.1667 45.8889 43.1667 46.6667C43.1667 47.4445 43.4445 48.1111 44 48.6667C44.5556 49.2222 45.2222 49.5 46 49.5ZM54 58.6667C54.5556 58.6667 55.0276 58.472 55.416 58.0827C55.8054 57.6942 56 57.2222 56 56.6667C56 56.1111 55.8054 55.6391 55.416 55.2507C55.0276 54.8614 54.5556 54.6667 54 54.6667C53.4445 54.6667 52.9725 54.8614 52.584 55.2507C52.1947 55.6391 52 56.1111 52 56.6667C52 57.2222 52.1947 57.6942 52.584 58.0827C52.9725 58.472 53.4445 58.6667 54 58.6667ZM58 44.6667C58.5556 44.6667 59.0276 44.472 59.416 44.0827C59.8054 43.6942 60 43.2222 60 42.6667C60 42.1111 59.8054 41.6391 59.416 41.2507C59.0276 40.8614 58.5556 40.6667 58 40.6667C57.4445 40.6667 56.9725 40.8614 56.584 41.2507C56.1947 41.6391 56 42.1111 56 42.6667C56 43.2222 56.1947 43.6942 56.584 44.0827C56.9725 44.472 57.4445 44.6667 58 44.6667Z" fill="black" fill-opacity="0.98"/>
</g>
</svg>
