<svg width="92" height="92" viewBox="0 0 92 92" fill="none" xmlns="http://www.w3.org/2000/svg">
<circle cx="46" cy="46" r="46" fill="#F9F9F9"/>
<mask id="mask0_187_573" style="mask-type:alpha" maskUnits="userSpaceOnUse" x="30" y="30" width="32" height="32">
<rect x="30" y="30" width="32" height="32" fill="#D9D9D9"/>
</mask>
<g mask="url(#mask0_187_573)">
<path d="M33.0333 55.7C32.5666 55.7 32.1666 55.5334 31.8333 55.2C31.5 54.8667 31.3333 54.4667 31.3333 54H36.1666C35.5444 54 35.028 53.7947 34.6173 53.384C34.2058 52.9725 34 52.4556 34 51.8334V37.5C34 36.8778 34.2058 36.3614 34.6173 35.9507C35.028 35.5392 35.5444 35.3334 36.1666 35.3334H55.8333C56.4555 35.3334 56.9724 35.5392 57.384 35.9507C57.7946 36.3614 58 36.8778 58 37.5V51.8334C58 52.4556 57.7946 52.9725 57.384 53.384C56.9724 53.7947 56.4555 54 55.8333 54H60.6666C60.6666 54.4667 60.5 54.8667 60.1666 55.2C59.8333 55.5334 59.4333 55.7 58.9666 55.7H33.0333ZM46 55.0334C46.2222 55.0334 46.4169 54.9498 46.584 54.7827C46.7502 54.6165 46.8333 54.4223 46.8333 54.2C46.8333 53.9778 46.7502 53.7889 46.584 53.6334C46.4169 53.4778 46.2222 53.4 46 53.4C45.7778 53.4 45.5831 53.4778 45.416 53.6334C45.2498 53.7889 45.1666 53.9778 45.1666 54.2C45.1666 54.4223 45.2498 54.6165 45.416 54.7827C45.5831 54.9498 45.7778 55.0334 46 55.0334ZM36.1666 52.6667H55.8333C56.0555 52.6667 56.2498 52.5832 56.416 52.416C56.5831 52.2498 56.6666 52.0556 56.6666 51.8334V37.5C56.6666 37.2778 56.5831 37.0836 56.416 36.9174C56.2498 36.7503 56.0555 36.6667 55.8333 36.6667H36.1666C35.9444 36.6667 35.7502 36.7503 35.584 36.9174C35.4169 37.0836 35.3333 37.2778 35.3333 37.5V51.8334C35.3333 52.0556 35.4169 52.2498 35.584 52.416C35.7502 52.5832 35.9444 52.6667 36.1666 52.6667Z" fill="black" fill-opacity="0.98"/>
</g>
</svg>
