<svg width="92" height="92" viewBox="0 0 92 92" fill="none" xmlns="http://www.w3.org/2000/svg">
<circle cx="46" cy="46" r="46" fill="#F9F9F9"/>
<mask id="mask0_187_585" style="mask-type:alpha" maskUnits="userSpaceOnUse" x="30" y="30" width="32" height="32">
<rect x="30" y="30" width="32" height="32" fill="#D9D9D9"/>
</mask>
<g mask="url(#mask0_187_585)">
<path d="M43.5667 33.0667H45.7667L45.9333 34.6333C46.1556 34.7444 46.3391 34.8387 46.484 34.916C46.628 34.9942 46.7667 35.0889 46.9 35.2L48.4 34.5667L49.5 36.5L48.2667 37.4333V38.5333L49.5 39.5L48.4 41.4333L46.9 40.8C46.7445 40.9111 46.5889 41.0164 46.4333 41.116C46.2778 41.2164 46.1111 41.3 45.9333 41.3666L45.7667 42.9333H43.5667L43.4 41.3666C43.2444 41.3 43.0836 41.2222 42.9173 41.1333C42.7502 41.0444 42.6111 40.9444 42.5 40.8333L42.2667 41.0333V48.3333L42.1333 48.1333L41.0667 48.6V41.3666L39.8667 39.5L41.0667 38.5667V37.4667L39.8333 36.5L40.9333 34.5667L42.4333 35.2C42.5889 35.0889 42.7444 34.9831 42.9 34.8827C43.0556 34.7831 43.2222 34.7 43.4 34.6333L43.5667 33.0667ZM44.6667 40.4C45.3333 40.4 45.9 40.1667 46.3667 39.7C46.8333 39.2333 47.0667 38.6667 47.0667 38C47.0667 37.3333 46.8333 36.7667 46.3667 36.3C45.9 35.8333 45.3333 35.6 44.6667 35.6C44 35.6 43.4333 35.8333 42.9667 36.3C42.5 36.7667 42.2667 37.3333 42.2667 38C42.2667 38.6667 42.5 39.2333 42.9667 39.7C43.4333 40.1667 44 40.4 44.6667 40.4ZM52.9 57.6L52.7333 56.0333C52.5111 55.9222 52.328 55.8275 52.184 55.7493C52.0391 55.672 51.9 55.5778 51.7667 55.4667L50.2667 56.1L49.1667 54.1667L50.4 53.2333V52.1333L49.1667 51.2L50.2667 49.2333L51.7667 49.8666C51.9 49.7555 52.0333 49.6555 52.1667 49.5667C52.3 49.4778 52.4445 49.4 52.6 49.3333L52.7333 48.8333L45.5333 43.8H46.5667L46.6333 43.1333L53.2333 47.7333H55.1L55.2667 49.3C55.4889 49.4111 55.6725 49.5058 55.8173 49.584C55.9613 49.6613 56.1 49.7555 56.2333 49.8666L57.7333 49.2333L58.8333 51.1667L57.6 52.1V53.2L58.8333 54.1667L57.7333 56.1L56.2333 55.4667L55.7667 55.8C55.6111 55.9111 55.4445 55.9889 55.2667 56.0333L55.1 57.6H52.9ZM54 55.0667C54.6667 55.0667 55.2333 54.8333 55.7 54.3666C56.1667 53.9 56.4 53.3333 56.4 52.6667C56.4 52 56.1667 51.4333 55.7 50.9667C55.2333 50.5 54.6667 50.2667 54 50.2667C53.3333 50.2667 52.7667 50.5 52.3 50.9667C51.8333 51.4333 51.6 52 51.6 52.6667C51.6 53.3333 51.8333 53.9 52.3 54.3666C52.7667 54.8333 53.3333 55.0667 54 55.0667ZM36.9 57.6L36.7333 56.0333C36.5333 55.9444 36.3556 55.8555 36.2 55.7667C36.0444 55.6778 35.9 55.5778 35.7667 55.4667L34.2667 56.1L33.1667 54.1667L34.4 53.2333V52.1333L33.1667 51.1667L34.2667 49.2333L35.7667 49.8666C35.9222 49.7555 36.0778 49.6498 36.2333 49.5493C36.3889 49.4498 36.5556 49.3667 36.7333 49.3L36.9 47.7333H39.1L39.2667 49.3C39.4889 49.4111 39.6724 49.5058 39.8173 49.584C39.9613 49.6613 40.1 49.7555 40.2333 49.8666L41.7333 49.2333L42.8333 51.1667L41.6 52.1V52.584C41.6 52.8169 41.5778 53.0111 41.5333 53.1667C41.6222 53.2333 41.6942 53.2942 41.7493 53.3493L41.9333 53.5333L49.2333 49.3333L48.1333 51.2L48.2333 51.2667L42.6333 54.5L41.7333 56.1L40.2333 55.4667C40.0778 55.5778 39.9222 55.6831 39.7667 55.7827C39.6111 55.8831 39.4444 55.9667 39.2667 56.0333L39.1 57.6H36.9ZM38 55.0667C38.6667 55.0667 39.2333 54.8333 39.7 54.3666C40.1667 53.9 40.4 53.3333 40.4 52.6667C40.4 52 40.1667 51.4333 39.7 50.9667C39.2333 50.5 38.6667 50.2667 38 50.2667C37.3333 50.2667 36.7667 50.5 36.3 50.9667C35.8333 51.4333 35.6 52 35.6 52.6667C35.6 53.3333 35.8333 53.9 36.3 54.3666C36.7667 54.8333 37.3333 55.0667 38 55.0667Z" fill="black" fill-opacity="0.98"/>
</g>
</svg>
