<svg width="92" height="92" viewBox="0 0 92 92" fill="none" xmlns="http://www.w3.org/2000/svg">
<circle cx="46" cy="46" r="46" fill="#F9F9F9"/>
<mask id="mask0_187_583" style="mask-type:alpha" maskUnits="userSpaceOnUse" x="30" y="30" width="32" height="32">
<rect x="30" y="30" width="32" height="32" fill="#D9D9D9"/>
</mask>
<g mask="url(#mask0_187_583)">
<path d="M44.9333 55.5334L38.4 51.7334C38.0667 51.5556 37.8058 51.3 37.6173 50.9667C37.428 50.6334 37.3333 50.2667 37.3333 49.8667V42.3334C37.3333 41.9334 37.428 41.5667 37.6173 41.2334C37.8058 40.9 38.0667 40.6334 38.4 40.4334L44.9333 36.6667C45.2667 36.4667 45.6222 36.3667 46 36.3667C46.3778 36.3667 46.7333 36.4667 47.0667 36.6667L53.6 40.4334C53.9333 40.6334 54.1947 40.9 54.384 41.2334C54.5725 41.5667 54.6667 41.9334 54.6667 42.3334V49.8667C54.6667 50.2667 54.5725 50.6334 54.384 50.9667C54.1947 51.3 53.9333 51.5556 53.6 51.7334L47.0667 55.5334C46.7333 55.7334 46.3778 55.8334 46 55.8334C45.6222 55.8334 45.2667 55.7334 44.9333 55.5334ZM45.3333 54.2334V46.4667L38.6667 42.6667V49.8667C38.6667 50.0222 38.7 50.1556 38.7667 50.2667C38.8333 50.3778 38.9333 50.4778 39.0667 50.5667L45.3333 54.2334ZM46.6667 54.2334L52.9333 50.5667C53.0667 50.4778 53.1667 50.3778 53.2333 50.2667C53.3 50.1556 53.3333 50.0222 53.3333 49.8667V42.6667L46.6667 46.4667V54.2334ZM32.6667 38V35.8667C32.6667 34.9556 32.9778 34.1947 33.6 33.584C34.2222 32.9725 34.9667 32.6667 35.8333 32.6667H38V34H35.8333C35.3222 34 34.8889 34.1778 34.5333 34.5334C34.1778 34.8889 34 35.3222 34 35.8334V38H32.6667ZM35.8667 59.3334C34.9556 59.3334 34.1947 59.0222 33.584 58.4C32.9724 57.7778 32.6667 57.0334 32.6667 56.1667V54H34V56.1667C34 56.6778 34.1778 57.1111 34.5333 57.4667C34.8889 57.8222 35.3222 58 35.8333 58H38V59.3334H35.8667ZM54 59.0667V57.7334H56.1667C56.6778 57.7334 57.1111 57.5556 57.4667 57.2C57.8222 56.8445 58 56.4111 58 55.9V53.7334H59.3333V55.9C59.3333 56.7889 59.0222 57.5391 58.4 58.1507C57.7778 58.7614 57.0333 59.0667 56.1667 59.0667H54ZM58 38V35.8334C58 35.3222 57.8222 34.8889 57.4667 34.5334C57.1111 34.1778 56.6778 34 56.1667 34H54V32.6667H56.1333C57.0445 32.6667 57.8053 32.9778 58.416 33.6C59.0276 34.2222 59.3333 34.9667 59.3333 35.8334V38H58ZM46 45.3L52.6667 41.4667L46.4 37.8667C46.2667 37.7778 46.1333 37.7334 46 37.7334C45.8667 37.7334 45.7333 37.7778 45.6 37.8667L39.3333 41.4667L46 45.3Z" fill="black" fill-opacity="0.98"/>
</g>
</svg>
