<svg width="92" height="92" viewBox="0 0 92 92" fill="none" xmlns="http://www.w3.org/2000/svg">
<circle cx="46" cy="46" r="46" fill="#F9F9F9"/>
<mask id="mask0_187_579" style="mask-type:alpha" maskUnits="userSpaceOnUse" x="30" y="30" width="32" height="32">
<rect x="30" y="30" width="32" height="32" fill="#D9D9D9"/>
</mask>
<g mask="url(#mask0_187_579)">
<path d="M46 56.6667C44.8 56.6667 43.6942 56.372 42.6827 55.7827C41.672 55.1942 40.8556 54.3778 40.2333 53.3334H36.5V52H39.6667C39.4667 51.3556 39.3613 50.6942 39.3507 50.016C39.3391 49.3387 39.3333 48.6667 39.3333 48H36.5V46.6667H39.3333C39.3333 45.9778 39.328 45.2942 39.3173 44.616C39.3058 43.9387 39.4222 43.2889 39.6667 42.6667H36.5V41.3334H40.2333C40.5667 40.7556 40.9778 40.2387 41.4667 39.7827C41.9556 39.3276 42.5 38.9556 43.1 38.6667L40.7333 36.2667L41.6 35.4L44.4333 38.2C44.9444 38.0445 45.4613 37.9667 45.984 37.9667C46.5058 37.9667 47.0333 38.0445 47.5667 38.2L50.4333 35.4L51.3333 36.2667L48.9333 38.6667C49.5333 38.9556 50.0724 39.3276 50.5507 39.7827C51.028 40.2387 51.4333 40.7556 51.7667 41.3334H55.5V42.6667H52.3333C52.5778 43.2889 52.6947 43.9387 52.684 44.616C52.6724 45.2942 52.6667 45.9778 52.6667 46.6667H55.5V48H52.6667C52.6667 48.6667 52.6613 49.3387 52.6507 50.016C52.6391 50.6942 52.5333 51.3556 52.3333 52H55.5V53.3334H51.7667C51.1444 54.3778 50.328 55.1942 49.3173 55.7827C48.3058 56.372 47.2 56.6667 46 56.6667ZM46 55.3334C47.4667 55.3334 48.7222 54.8111 49.7667 53.7667C50.8111 52.7222 51.3333 51.4667 51.3333 50V44.6667C51.3333 43.2 50.8111 41.9445 49.7667 40.9C48.7222 39.8556 47.4667 39.3334 46 39.3334C44.5333 39.3334 43.2778 39.8556 42.2333 40.9C41.1889 41.9445 40.6667 43.2 40.6667 44.6667V50C40.6667 51.4667 41.1889 52.7222 42.2333 53.7667C43.2778 54.8111 44.5333 55.3334 46 55.3334ZM43.7333 50.6667H48.2667V49.3334H43.7333V50.6667ZM43.7333 45.3334H48.2667V44H43.7333V45.3334Z" fill="black" fill-opacity="0.98"/>
</g>
</svg>
