<svg width="92" height="92" viewBox="0 0 92 92" fill="none" xmlns="http://www.w3.org/2000/svg">
<circle cx="46" cy="46" r="46" fill="#F9F9F9"/>
<mask id="mask0_187_587" style="mask-type:alpha" maskUnits="userSpaceOnUse" x="30" y="30" width="32" height="32">
<rect x="30" y="30" width="32" height="32" fill="#D9D9D9"/>
</mask>
<g mask="url(#mask0_187_587)">
<path d="M44.6 49.8L51.2 43.2L50.2667 42.2333L44.6 47.9L41.7334 45.0666L40.8 46L44.6 49.8ZM46 57.9333C43.3111 57.1555 41.0831 55.5386 39.316 53.0826C37.5498 50.6275 36.6667 47.8666 36.6667 44.8V37.6L46 34.1L55.3334 37.6V44.8C55.3334 47.8666 54.4498 50.6275 52.6827 53.0826C50.9165 55.5386 48.6889 57.1555 46 57.9333ZM46 56.5333C48.3111 55.8 50.2222 54.3333 51.7334 52.1333C53.2445 49.9333 54 47.4889 54 44.8V38.5L46 35.5333L38 38.5V44.8C38 47.4889 38.7556 49.9333 40.2667 52.1333C41.7778 54.3333 43.6889 55.8 46 56.5333Z" fill="black" fill-opacity="0.98"/>
</g>
</svg>
